NotoSansNewTaiLue-Regular.ufo
<glyph name="uni1980" format="2">
  <advance width="929"/>
  <unicode hex="1980"/>
  <outline>
    <contour>
      <point x="623" y="-278" type="curve" smooth="yes"/>
      <point x="811" y="-278"/>
      <point x="871" y="-167"/>
      <point x="871" y="-85" type="curve" smooth="yes"/>
      <point x="871" y="-29"/>
      <point x="838" y="19"/>
      <point x="781" y="46" type="curve"/>
      <point x="841" y="91"/>
      <point x="880" y="171"/>
      <point x="880" y="270" type="curve" smooth="yes"/>
      <point x="880" y="468"/>
      <point x="764" y="546"/>
      <point x="645" y="546" type="curve" smooth="yes"/>
      <point x="585" y="546"/>
      <point x="510" y="526"/>
      <point x="448" y="452" type="curve"/>
      <point x="404" y="518"/>
      <point x="333" y="546"/>
      <point x="253" y="546" type="curve" smooth="yes"/>
      <point x="184" y="546"/>
      <point x="108" y="516"/>
      <point x="58" y="447" type="curve"/>
      <point x="122" y="410" type="line"/>
      <point x="155" y="460"/>
      <point x="208" y="479"/>
      <point x="249" y="479" type="curve" smooth="yes"/>
      <point x="346" y="479"/>
      <point x="404" y="405"/>
      <point x="404" y="271" type="curve" smooth="yes"/>
      <point x="404" y="142"/>
      <point x="345" y="58"/>
      <point x="254" y="58" type="curve" smooth="yes"/>
      <point x="186" y="58"/>
      <point x="125" y="106"/>
      <point x="104" y="153" type="curve"/>
      <point x="39" y="116" type="line"/>
      <point x="98" y="19"/>
      <point x="183" y="-10"/>
      <point x="254" y="-10" type="curve" smooth="yes"/>
      <point x="387" y="-10"/>
      <point x="494" y="80"/>
      <point x="494" y="270" type="curve" smooth="yes"/>
      <point x="494" y="300"/>
      <point x="492" y="328"/>
      <point x="487" y="353" type="curve"/>
      <point x="509" y="427"/>
      <point x="558" y="479"/>
      <point x="634" y="479" type="curve" smooth="yes"/>
      <point x="727" y="479"/>
      <point x="790" y="407"/>
      <point x="790" y="273" type="curve" smooth="yes"/>
      <point x="790" y="139"/>
      <point x="731" y="67"/>
      <point x="653" y="67" type="curve" smooth="yes"/>
      <point x="646" y="67"/>
      <point x="640" y="67"/>
      <point x="634" y="67" type="curve"/>
      <point x="634" y="0" type="line"/>
      <point x="639" y="0"/>
      <point x="644" y="0"/>
      <point x="649" y="0" type="curve" smooth="yes"/>
      <point x="757" y="0"/>
      <point x="782" y="-48"/>
      <point x="782" y="-86" type="curve" smooth="yes"/>
      <point x="782" y="-148"/>
      <point x="750" y="-211"/>
      <point x="623" y="-211" type="curve" smooth="yes"/>
      <point x="547" y="-211"/>
      <point x="477" y="-168"/>
      <point x="439" y="-122" type="curve"/>
      <point x="380" y="-166" type="line"/>
      <point x="444" y="-246"/>
      <point x="553" y="-278"/>
    </contour>
  </outline>
</glyph>
<glyph name="uni1982" format="2">
  <advance width="908"/>
  <unicode hex="1982"/>
  <outline>
    <contour>
      <point x="280" y="-10" type="curve" smooth="yes"/>
      <point x="321" y="-10"/>
      <point x="359" y="-2"/>
      <point x="397" y="20" type="curve"/>
      <point x="357" y="77" type="line"/>
      <point x="333" y="63"/>
      <point x="307" y="58"/>
      <point x="284" y="58" type="curve" smooth="yes"/>
      <point x="196" y="58"/>
      <point x="139" y="126"/>
      <point x="139" y="275" type="curve" smooth="yes"/>
      <point x="139" y="404"/>
      <point x="192" y="479"/>
      <point x="283" y="479" type="curve" smooth="yes"/>
      <point x="361" y="479"/>
      <point x="406" y="416"/>
      <point x="413" y="324" type="curve"/>
      <point x="496" y="324" type="line"/>
      <point x="502" y="416"/>
      <point x="547" y="479"/>
      <point x="625" y="479" type="curve" smooth="yes"/>
      <point x="716" y="479"/>
      <point x="770" y="404"/>
      <point x="770" y="275" type="curve" smooth="yes"/>
      <point x="770" y="126"/>
      <point x="712" y="58"/>
      <point x="624" y="58" type="curve" smooth="yes"/>
      <point x="602" y="58"/>
      <point x="576" y="63"/>
      <point x="551" y="77" type="curve"/>
      <point x="511" y="20" type="line"/>
      <point x="549" y="-2"/>
      <point x="587" y="-10"/>
      <point x="628" y="-10" type="curve" smooth="yes"/>
      <point x="743" y="-10"/>
      <point x="859" y="78"/>
      <point x="859" y="276" type="curve" smooth="yes"/>
      <point x="859" y="451"/>
      <point x="755" y="546"/>
      <point x="628" y="546" type="curve" smooth="yes"/>
      <point x="567" y="546"/>
      <point x="492" y="515"/>
      <point x="454" y="436" type="curve"/>
      <point x="416" y="515"/>
      <point x="340" y="546"/>
      <point x="280" y="546" type="curve" smooth="yes"/>
      <point x="153" y="546"/>
      <point x="49" y="451"/>
      <point x="49" y="276" type="curve" smooth="yes"/>
      <point x="49" y="78"/>
      <point x="165" y="-10"/>
    </contour>
  </outline>
</glyph>
<glyph name="uni1983" format="2">
  <advance width="530"/>
  <unicode hex="1983"/>
  <outline>
    <contour>
      <point x="232" y="-278" type="curve" smooth="yes"/>
      <point x="400" y="-278"/>
      <point x="481" y="-154"/>
      <point x="481" y="2" type="curve" smooth="yes"/>
      <point x="481" y="57"/>
      <point x="465" y="105"/>
      <point x="439" y="146" type="curve"/>
      <point x="466" y="193"/>
      <point x="479" y="248"/>
      <point x="479" y="297" type="curve" smooth="yes"/>
      <point x="479" y="450"/>
      <point x="386" y="546"/>
      <point x="248" y="546" type="curve" smooth="yes"/>
      <point x="170" y="546"/>
      <point x="95" y="522"/>
      <point x="43" y="447" type="curve"/>
      <point x="104" y="411" type="line"/>
      <point x="138" y="461"/>
      <point x="189" y="479"/>
      <point x="239" y="479" type="curve" smooth="yes"/>
      <point x="307" y="479"/>
      <point x="390" y="442"/>
      <point x="390" y="304" type="curve" smooth="yes"/>
      <point x="390" y="269"/>
      <point x="386" y="237"/>
      <point x="379" y="209" type="curve"/>
      <point x="337" y="241"/>
      <point x="285" y="258"/>
      <point x="229" y="258" type="curve" smooth="yes"/>
      <point x="140" y="258"/>
      <point x="67" y="208"/>
      <point x="67" y="140" type="curve" smooth="yes"/>
      <point x="67" y="82"/>
      <point x="112" y="24"/>
      <point x="230" y="24" type="curve" smooth="yes"/>
      <point x="292" y="24"/>
      <point x="342" y="44"/>
      <point x="380" y="75" type="curve"/>
      <point x="388" y="49"/>
      <point x="391" y="21"/>
      <point x="391" y="-7" type="curve" smooth="yes"/>
      <point x="391" y="-117"/>
      <point x="348" y="-211"/>
      <point x="232" y="-211" type="curve" smooth="yes"/>
      <point x="162" y="-211"/>
      <point x="106" y="-174"/>
      <point x="77" y="-142" type="curve"/>
      <point x="20" y="-188" type="line"/>
      <point x="55" y="-230"/>
      <point x="126" y="-278"/>
    </contour>
    <contour>
      <point x="233" y="92" type="curve" smooth="yes"/>
      <point x="186" y="92"/>
      <point x="149" y="111"/>
      <point x="149" y="146" type="curve" smooth="yes"/>
      <point x="149" y="177"/>
      <point x="189" y="192"/>
      <point x="228" y="192" type="curve" smooth="yes"/>
      <point x="282" y="192"/>
      <point x="321" y="171"/>
      <point x="347" y="140" type="curve"/>
      <point x="322" y="109"/>
      <point x="285" y="92"/>
    </contour>
  </outline>
</glyph>
<glyph name="uni1984" format="2">
  <advance width="914"/>
  <unicode hex="1984"/>
  <outline>
    <contour>
      <point x="248" y="-10" type="curve" smooth="yes"/>
      <point x="349" y="-10"/>
      <point x="409" y="95"/>
      <point x="455" y="180" type="curve" smooth="yes"/>
      <point x="552" y="361" type="line" smooth="yes"/>
      <point x="590" y="431"/>
      <point x="620" y="479"/>
      <point x="665" y="479" type="curve" smooth="yes"/>
      <point x="722" y="479"/>
      <point x="775" y="421"/>
      <point x="775" y="278" type="curve" smooth="yes"/>
      <point x="775" y="144"/>
      <point x="731" y="58"/>
      <point x="653" y="58" type="curve" smooth="yes"/>
      <point x="616" y="58"/>
      <point x="584" y="70"/>
      <point x="560" y="105" type="curve"/>
      <point x="510" y="61" type="line"/>
      <point x="542" y="19"/>
      <point x="591" y="-10"/>
      <point x="654" y="-10" type="curve" smooth="yes"/>
      <point x="764" y="-10"/>
      <point x="865" y="111"/>
      <point x="865" y="279" type="curve" smooth="yes"/>
      <point x="865" y="444"/>
      <point x="777" y="546"/>
      <point x="666" y="546" type="curve" smooth="yes"/>
      <point x="565" y="546"/>
      <point x="505" y="441"/>
      <point x="459" y="356" type="curve" smooth="yes"/>
      <point x="361" y="175" type="line" smooth="yes"/>
      <point x="323" y="105"/>
      <point x="293" y="58"/>
      <point x="249" y="58" type="curve" smooth="yes"/>
      <point x="192" y="58"/>
      <point x="139" y="115"/>
      <point x="139" y="258" type="curve" smooth="yes"/>
      <point x="139" y="392"/>
      <point x="183" y="479"/>
      <point x="261" y="479" type="curve" smooth="yes"/>
      <point x="297" y="479"/>
      <point x="329" y="466"/>
      <point x="354" y="431" type="curve"/>
      <point x="403" y="476" type="line"/>
      <point x="372" y="518"/>
      <point x="323" y="546"/>
      <point x="259" y="546" type="curve" smooth="yes"/>
      <point x="150" y="546"/>
      <point x="49" y="425"/>
      <point x="49" y="257" type="curve" smooth="yes"/>
      <point x="49" y="92"/>
      <point x="137" y="-10"/>
    </contour>
    <contour>
      <point x="461" y="-293" type="curve" smooth="yes"/>
      <point x="667" y="-293"/>
      <point x="744" y="-223"/>
      <point x="744" y="-161" type="curve" smooth="yes"/>
      <point x="744" y="-92"/>
      <point x="677" y="-39"/>
      <point x="503" y="-39" type="curve" smooth="yes"/>
      <point x="388" y="-39"/>
      <point x="310" y="-76"/>
      <point x="310" y="-123" type="curve" smooth="yes"/>
      <point x="310" y="-162"/>
      <point x="360" y="-188"/>
      <point x="436" y="-188" type="curve" smooth="yes"/>
      <point x="459" y="-188"/>
      <point x="485" y="-185"/>
      <point x="504" y="-180" type="curve"/>
      <point x="485" y="-131" type="line"/>
      <point x="470" y="-133"/>
      <point x="450" y="-134"/>
      <point x="439" y="-134" type="curve" smooth="yes"/>
      <point x="412" y="-134"/>
      <point x="383" y="-129"/>
      <point x="383" y="-118" type="curve" smooth="yes"/>
      <point x="383" y="-108"/>
      <point x="417" y="-98"/>
      <point x="505" y="-98" type="curve" smooth="yes"/>
      <point x="615" y="-98"/>
      <point x="671" y="-114"/>
      <point x="671" y="-159" type="curve" smooth="yes"/>
      <point x="671" y="-193"/>
      <point x="618" y="-234"/>
      <point x="462" y="-234" type="curve" smooth="yes"/>
      <point x="356" y="-234"/>
      <point x="237" y="-205"/>
      <point x="150" y="-144" type="curve"/>
      <point x="116" y="-192" type="line"/>
      <point x="164" y="-232"/>
      <point x="284" y="-293"/>
    </contour>
  </outline>
</glyph>
<glyph name="uni1985" format="2">
  <advance width="611"/>
  <unicode hex="1985"/>
  <outline>
    <contour>
      <point x="210" y="-5" type="curve"/>
      <point x="238" y="61" type="line"/>
      <point x="177" y="86"/>
      <point x="139" y="156"/>
      <point x="139" y="273" type="curve" smooth="yes"/>
      <point x="139" y="396"/>
      <point x="190" y="479"/>
      <point x="306" y="479" type="curve" smooth="yes"/>
      <point x="410" y="479"/>
      <point x="473" y="407"/>
      <point x="473" y="273" type="curve" smooth="yes"/>
      <point x="473" y="156"/>
      <point x="435" y="86"/>
      <point x="374" y="61" type="curve"/>
      <point x="401" y="-5" type="line"/>
      <point x="481" y="39"/>
      <point x="563" y="122"/>
      <point x="563" y="263" type="curve" smooth="yes"/>
      <point x="563" y="421"/>
      <point x="451" y="546"/>
      <point x="306" y="546" type="curve" smooth="yes"/>
      <point x="159" y="546"/>
      <point x="49" y="426"/>
      <point x="49" y="263" type="curve" smooth="yes"/>
      <point x="49" y="134"/>
      <point x="120" y="43"/>
    </contour>
  </outline>
</glyph>
<glyph name="uni1986" format="2">
  <advance width="598"/>
  <unicode hex="1986"/>
  <outline>
    <contour>
      <point x="211" y="-5" type="curve"/>
      <point x="239" y="63" type="line"/>
      <point x="149" y="111"/>
      <point x="136" y="205"/>
      <point x="136" y="313" type="curve" smooth="yes"/>
      <point x="136" y="352" type="line" smooth="yes"/>
      <point x="136" y="420"/>
      <point x="201" y="479"/>
      <point x="292" y="479" type="curve" smooth="yes"/>
      <point x="396" y="479"/>
      <point x="459" y="407"/>
      <point x="459" y="273" type="curve" smooth="yes"/>
      <point x="459" y="156"/>
      <point x="421" y="89"/>
      <point x="360" y="63" type="curve"/>
      <point x="387" y="-5" type="line"/>
      <point x="468" y="39"/>
      <point x="549" y="126"/>
      <point x="549" y="268" type="curve" smooth="yes"/>
      <point x="549" y="451"/>
      <point x="431" y="546"/>
      <point x="292" y="546" type="curve" smooth="yes"/>
      <point x="234" y="546"/>
      <point x="181" y="524"/>
      <point x="140" y="489" type="curve"/>
      <point x="150" y="671"/>
      <point x="189" y="782"/>
      <point x="317" y="782" type="curve" smooth="yes"/>
      <point x="357" y="782"/>
      <point x="417" y="763"/>
      <point x="444" y="713" type="curve"/>
      <point x="509" y="764" type="line"/>
      <point x="456" y="832"/>
      <point x="387" y="850"/>
      <point x="330" y="850" type="curve" smooth="yes"/>
      <point x="164" y="850"/>
      <point x="49" y="689"/>
      <point x="49" y="414" type="curve" smooth="yes"/>
      <point x="49" y="328" type="line" smooth="yes"/>
      <point x="49" y="171"/>
      <point x="89" y="54"/>
    </contour>
  </outline>
</glyph>
<glyph name="uni1987" format="2">
  <advance width="646"/>
  <unicode hex="1987"/>
  <outline>
    <contour>
      <point x="305" y="-278" type="curve" smooth="yes"/>
      <point x="496" y="-278"/>
      <point x="598" y="-83"/>
      <point x="598" y="166" type="curve" smooth="yes"/>
      <point x="598" y="393"/>
      <point x="499" y="546"/>
      <point x="314" y="546" type="curve" smooth="yes"/>
      <point x="181" y="546"/>
      <point x="49" y="440"/>
      <point x="49" y="241" type="curve" smooth="yes"/>
      <point x="49" y="59"/>
      <point x="102" y="-10"/>
      <point x="173" y="-10" type="curve" smooth="yes"/>
      <point x="274" y="-10"/>
      <point x="270" y="121"/>
      <point x="305" y="121" type="curve" smooth="yes"/>
      <point x="319" y="121"/>
      <point x="333" y="96"/>
      <point x="333" y="42" type="curve" smooth="yes"/>
      <point x="333" y="29"/>
      <point x="333" y="15"/>
      <point x="332" y="0" type="curve"/>
      <point x="405" y="33" type="line"/>
      <point x="406" y="45"/>
      <point x="406" y="56"/>
      <point x="406" y="67" type="curve" smooth="yes"/>
      <point x="406" y="142"/>
      <point x="374" y="188"/>
      <point x="315" y="188" type="curve" smooth="yes"/>
      <point x="238" y="188"/>
      <point x="223" y="58"/>
      <point x="180" y="58" type="curve" smooth="yes"/>
      <point x="153" y="58"/>
      <point x="139" y="106"/>
      <point x="139" y="252" type="curve" smooth="yes"/>
      <point x="139" y="385"/>
      <point x="198" y="479"/>
      <point x="312" y="479" type="curve" smooth="yes"/>
      <point x="427" y="479"/>
      <point x="508" y="395"/>
      <point x="508" y="166" type="curve" smooth="yes"/>
      <point x="508" y="-17"/>
      <point x="486" y="-211"/>
      <point x="307" y="-211" type="curve" smooth="yes"/>
      <point x="286" y="-211"/>
      <point x="254" y="-203"/>
      <point x="238" y="-194" type="curve"/>
      <point x="206" y="-259" type="line"/>
      <point x="239" y="-274"/>
      <point x="277" y="-278"/>
    </contour>
  </outline>
</glyph>
<glyph name="uni1988" format="2">
  <advance width="578"/>
  <unicode hex="1988"/>
  <outline>
    <contour>
      <point x="256" y="-10" type="curve" smooth="yes"/>
      <point x="418" y="-10"/>
      <point x="529" y="118"/>
      <point x="529" y="269" type="curve" smooth="yes"/>
      <point x="529" y="428"/>
      <point x="412" y="546"/>
      <point x="264" y="546" type="curve" smooth="yes"/>
      <point x="167" y="546"/>
      <point x="61" y="481"/>
      <point x="61" y="388" type="curve" smooth="yes"/>
      <point x="61" y="338"/>
      <point x="100" y="292"/>
      <point x="163" y="279" type="curve"/>
      <point x="163" y="276" type="line"/>
      <point x="89" y="258"/>
      <point x="49" y="213"/>
      <point x="49" y="153" type="curve" smooth="yes"/>
      <point x="49" y="47"/>
      <point x="150" y="-10"/>
    </contour>
    <contour>
      <point x="276" y="58" type="curve" smooth="yes"/>
      <point x="183" y="58"/>
      <point x="139" y="94"/>
      <point x="139" y="157" type="curve" smooth="yes"/>
      <point x="139" y="197"/>
      <point x="164" y="242"/>
      <point x="256" y="242" type="curve" smooth="yes"/>
      <point x="276" y="242" type="line"/>
      <point x="276" y="310" type="line"/>
      <point x="264" y="310" type="line" smooth="yes"/>
      <point x="204" y="310"/>
      <point x="151" y="325"/>
      <point x="151" y="387" type="curve" smooth="yes"/>
      <point x="151" y="433"/>
      <point x="181" y="479"/>
      <point x="275" y="479" type="curve" smooth="yes"/>
      <point x="375" y="479"/>
      <point x="439" y="413"/>
      <point x="439" y="269" type="curve" smooth="yes"/>
      <point x="439" y="115"/>
      <point x="369" y="58"/>
    </contour>
  </outline>
</glyph>
<glyph name="uni1989" format="2">
  <advance width="929"/>
  <unicode hex="1989"/>
  <outline>
    <contour>
      <point x="250" y="-10" type="curve" smooth="yes"/>
      <point x="315" y="-10"/>
      <point x="381" y="17"/>
      <point x="428" y="70" type="curve"/>
      <point x="488" y="4"/>
      <point x="573" y="-10"/>
      <point x="635" y="-10" type="curve" smooth="yes"/>
      <point x="767" y="-10"/>
      <point x="880" y="85"/>
      <point x="880" y="275" type="curve" smooth="yes"/>
      <point x="880" y="473"/>
      <point x="754" y="546"/>
      <point x="655" y="546" type="curve" smooth="yes"/>
      <point x="588" y="546"/>
      <point x="531" y="526"/>
      <point x="492" y="469" type="curve"/>
      <point x="556" y="430" type="line"/>
      <point x="574" y="459"/>
      <point x="607" y="479"/>
      <point x="644" y="479" type="curve" smooth="yes"/>
      <point x="720" y="479"/>
      <point x="790" y="421"/>
      <point x="790" y="276" type="curve" smooth="yes"/>
      <point x="790" y="147"/>
      <point x="737" y="58"/>
      <point x="635" y="58" type="curve" smooth="yes"/>
      <point x="568" y="58"/>
      <point x="497" y="103"/>
      <point x="474" y="148" type="curve"/>
      <point x="487" y="183"/>
      <point x="494" y="223"/>
      <point x="494" y="270" type="curve" smooth="yes"/>
      <point x="494" y="468"/>
      <point x="382" y="546"/>
      <point x="253" y="546" type="curve" smooth="yes"/>
      <point x="184" y="546"/>
      <point x="108" y="516"/>
      <point x="58" y="447" type="curve"/>
      <point x="122" y="410" type="line"/>
      <point x="155" y="460"/>
      <point x="208" y="479"/>
      <point x="249" y="479" type="curve" smooth="yes"/>
      <point x="346" y="479"/>
      <point x="404" y="405"/>
      <point x="404" y="271" type="curve" smooth="yes"/>
      <point x="404" y="142"/>
      <point x="345" y="58"/>
      <point x="254" y="58" type="curve" smooth="yes"/>
      <point x="186" y="58"/>
      <point x="125" y="106"/>
      <point x="104" y="153" type="curve"/>
      <point x="39" y="116" type="line"/>
      <point x="98" y="19"/>
      <point x="178" y="-10"/>
    </contour>
  </outline>
</glyph>
<glyph name="uni198A" format="2">
  <advance width="621"/>
  <unicode hex="198A"/>
  <outline>
    <contour>
      <point x="263" y="-10" type="curve" smooth="yes"/>
      <point x="468" y="-10"/>
      <point x="551" y="148"/>
      <point x="551" y="401" type="curve" smooth="yes"/>
      <point x="551" y="674"/>
      <point x="564" y="782"/>
      <point x="641" y="782" type="curve" smooth="yes"/>
      <point x="656" y="782"/>
      <point x="667" y="781"/>
      <point x="686" y="775" type="curve"/>
      <point x="719" y="837" type="line"/>
      <point x="691" y="847"/>
      <point x="677" y="850"/>
      <point x="656" y="850" type="curve" smooth="yes"/>
      <point x="528" y="850"/>
      <point x="464" y="663"/>
      <point x="464" y="464" type="curve" smooth="yes"/>
      <point x="464" y="364" type="line" smooth="yes"/>
      <point x="464" y="159"/>
      <point x="402" y="58"/>
      <point x="264" y="58" type="curve" smooth="yes"/>
      <point x="190" y="58"/>
      <point x="139" y="90"/>
      <point x="139" y="164" type="curve" smooth="yes"/>
      <point x="139" y="208"/>
      <point x="166" y="257"/>
      <point x="266" y="257" type="curve" smooth="yes"/>
      <point x="272" y="257"/>
      <point x="289" y="257"/>
      <point x="295" y="256" type="curve"/>
      <point x="295" y="315" type="line"/>
      <point x="235" y="315"/>
      <point x="139" y="318"/>
      <point x="139" y="408" type="curve" smooth="yes"/>
      <point x="139" y="450"/>
      <point x="176" y="479"/>
      <point x="248" y="479" type="curve" smooth="yes"/>
      <point x="280" y="479"/>
      <point x="328" y="468"/>
      <point x="355" y="449" type="curve"/>
      <point x="389" y="504" type="line"/>
      <point x="351" y="531"/>
      <point x="288" y="546"/>
      <point x="238" y="546" type="curve" smooth="yes"/>
      <point x="113" y="546"/>
      <point x="49" y="476"/>
      <point x="49" y="408" type="curve" smooth="yes"/>
      <point x="49" y="341"/>
      <point x="88" y="313"/>
      <point x="139" y="292" type="curve"/>
      <point x="81" y="267"/>
      <point x="49" y="216"/>
      <point x="49" y="160" type="curve" smooth="yes"/>
      <point x="49" y="97"/>
      <point x="89" y="-10"/>
    </contour>
  </outline>
</glyph>
<glyph name="uni198B" format="2">
  <advance width="611"/>
  <unicode hex="198B"/>
  <outline>
    <contour>
      <point x="329" y="-278" type="curve" smooth="yes"/>
      <point x="517" y="-278"/>
      <point x="577" y="-167"/>
      <point x="577" y="-85" type="curve" smooth="yes"/>
      <point x="577" y="-26"/>
      <point x="541" y="23"/>
      <point x="477" y="51" type="curve"/>
      <point x="525" y="99"/>
      <point x="563" y="167"/>
      <point x="563" y="263" type="curve" smooth="yes"/>
      <point x="563" y="421"/>
      <point x="451" y="546"/>
      <point x="306" y="546" type="curve" smooth="yes"/>
      <point x="159" y="546"/>
      <point x="49" y="426"/>
      <point x="49" y="263" type="curve" smooth="yes"/>
      <point x="49" y="134"/>
      <point x="120" y="43"/>
      <point x="210" y="-5" type="curve"/>
      <point x="238" y="61" type="line"/>
      <point x="177" y="86"/>
      <point x="139" y="156"/>
      <point x="139" y="273" type="curve" smooth="yes"/>
      <point x="139" y="396"/>
      <point x="190" y="479"/>
      <point x="306" y="479" type="curve" smooth="yes"/>
      <point x="410" y="479"/>
      <point x="473" y="407"/>
      <point x="473" y="273" type="curve" smooth="yes"/>
      <point x="473" y="156"/>
      <point x="432" y="67"/>
      <point x="361" y="67" type="curve" smooth="yes"/>
      <point x="354" y="67"/>
      <point x="348" y="67"/>
      <point x="340" y="67" type="curve"/>
      <point x="340" y="0" type="line"/>
      <point x="345" y="0"/>
      <point x="350" y="0"/>
      <point x="355" y="0" type="curve" smooth="yes"/>
      <point x="463" y="0"/>
      <point x="488" y="-43"/>
      <point x="488" y="-86" type="curve" smooth="yes"/>
      <point x="488" y="-148"/>
      <point x="457" y="-211"/>
      <point x="329" y="-211" type="curve" smooth="yes"/>
      <point x="253" y="-211"/>
      <point x="183" y="-168"/>
      <point x="145" y="-122" type="curve"/>
      <point x="86" y="-166" type="line"/>
      <point x="150" y="-246"/>
      <point x="259" y="-278"/>
    </contour>
  </outline>
</glyph>
<glyph name="uni198C" format="2">
  <advance width="598"/>
  <unicode hex="198C"/>
  <outline>
    <contour>
      <point x="315" y="-278" type="curve" smooth="yes"/>
      <point x="503" y="-278"/>
      <point x="563" y="-167"/>
      <point x="563" y="-85" type="curve" smooth="yes"/>
      <point x="563" y="-26"/>
      <point x="526" y="19"/>
      <point x="462" y="46" type="curve"/>
      <point x="512" y="96"/>
      <point x="549" y="172"/>
      <point x="549" y="268" type="curve" smooth="yes"/>
      <point x="549" y="451"/>
      <point x="431" y="546"/>
      <point x="292" y="546" type="curve" smooth="yes"/>
      <point x="234" y="546"/>
      <point x="181" y="524"/>
      <point x="140" y="489" type="curve"/>
      <point x="150" y="671"/>
      <point x="189" y="782"/>
      <point x="317" y="782" type="curve" smooth="yes"/>
      <point x="357" y="782"/>
      <point x="417" y="763"/>
      <point x="444" y="713" type="curve"/>
      <point x="509" y="764" type="line"/>
      <point x="456" y="832"/>
      <point x="387" y="850"/>
      <point x="330" y="850" type="curve" smooth="yes"/>
      <point x="164" y="850"/>
      <point x="49" y="689"/>
      <point x="49" y="414" type="curve" smooth="yes"/>
      <point x="49" y="328" type="line" smooth="yes"/>
      <point x="49" y="171"/>
      <point x="89" y="54"/>
      <point x="211" y="-5" type="curve"/>
      <point x="239" y="63" type="line"/>
      <point x="149" y="111"/>
      <point x="136" y="205"/>
      <point x="136" y="313" type="curve" smooth="yes"/>
      <point x="136" y="354" type="line" smooth="yes"/>
      <point x="136" y="420"/>
      <point x="203" y="479"/>
      <point x="292" y="479" type="curve" smooth="yes"/>
      <point x="396" y="479"/>
      <point x="459" y="407"/>
      <point x="459" y="273" type="curve" smooth="yes"/>
      <point x="459" y="156"/>
      <point x="407" y="67"/>
      <point x="342" y="67" type="curve" smooth="yes"/>
      <point x="326" y="67" type="line"/>
      <point x="326" y="0" type="line"/>
      <point x="331" y="0"/>
      <point x="336" y="0"/>
      <point x="341" y="0" type="curve" smooth="yes"/>
      <point x="450" y="0"/>
      <point x="474" y="-43"/>
      <point x="474" y="-86" type="curve" smooth="yes"/>
      <point x="474" y="-148"/>
      <point x="443" y="-211"/>
      <point x="315" y="-211" type="curve" smooth="yes"/>
      <point x="240" y="-211"/>
      <point x="169" y="-168"/>
      <point x="131" y="-122" type="curve"/>
      <point x="72" y="-166" type="line"/>
      <point x="136" y="-246"/>
      <point x="245" y="-278"/>
    </contour>
  </outline>
</glyph>
<glyph name="uni198D" format="2">
  <advance width="908"/>
  <unicode hex="198D"/>
  <outline>
    <contour>
      <point x="280" y="-10" type="curve" smooth="yes"/>
      <point x="340" y="-10"/>
      <point x="416" y="21"/>
      <point x="454" y="100" type="curve"/>
      <point x="492" y="21"/>
      <point x="567" y="-10"/>
      <point x="628" y="-10" type="curve" smooth="yes"/>
      <point x="755" y="-10"/>
      <point x="859" y="85"/>
      <point x="859" y="260" type="curve" smooth="yes"/>
      <point x="859" y="458"/>
      <point x="743" y="546"/>
      <point x="628" y="546" type="curve" smooth="yes"/>
      <point x="587" y="546"/>
      <point x="549" y="538"/>
      <point x="511" y="516" type="curve"/>
      <point x="551" y="459" type="line"/>
      <point x="576" y="473"/>
      <point x="602" y="479"/>
      <point x="624" y="479" type="curve" smooth="yes"/>
      <point x="712" y="479"/>
      <point x="770" y="410"/>
      <point x="770" y="261" type="curve" smooth="yes"/>
      <point x="770" y="132"/>
      <point x="716" y="58"/>
      <point x="625" y="58" type="curve" smooth="yes"/>
      <point x="547" y="58"/>
      <point x="502" y="120"/>
      <point x="496" y="212" type="curve"/>
      <point x="413" y="212" type="line"/>
      <point x="406" y="120"/>
      <point x="361" y="58"/>
      <point x="283" y="58" type="curve" smooth="yes"/>
      <point x="192" y="58"/>
      <point x="139" y="132"/>
      <point x="139" y="261" type="curve" smooth="yes"/>
      <point x="139" y="410"/>
      <point x="196" y="479"/>
      <point x="284" y="479" type="curve" smooth="yes"/>
      <point x="307" y="479"/>
      <point x="333" y="473"/>
      <point x="357" y="459" type="curve"/>
      <point x="397" y="516" type="line"/>
      <point x="359" y="538"/>
      <point x="321" y="546"/>
      <point x="280" y="546" type="curve" smooth="yes"/>
      <point x="165" y="546"/>
      <point x="49" y="458"/>
      <point x="49" y="260" type="curve" smooth="yes"/>
      <point x="49" y="85"/>
      <point x="153" y="-10"/>
    </contour>
  </outline>
</glyph>
<glyph name="uni198E" format="2">
  <advance width="908"/>
  <unicode hex="198E"/>
  <outline>
    <contour>
      <point x="275" y="-10" type="curve" smooth="yes"/>
      <point x="423" y="-10"/>
      <point x="505" y="110"/>
      <point x="505" y="269" type="curve" smooth="yes"/>
      <point x="505" y="292"/>
      <point x="503" y="315"/>
      <point x="500" y="337" type="curve"/>
      <point x="510" y="422"/>
      <point x="553" y="479"/>
      <point x="625" y="479" type="curve" smooth="yes"/>
      <point x="716" y="479"/>
      <point x="770" y="404"/>
      <point x="770" y="275" type="curve" smooth="yes"/>
      <point x="770" y="141"/>
      <point x="712" y="58"/>
      <point x="624" y="58" type="curve" smooth="yes"/>
      <point x="602" y="58"/>
      <point x="576" y="63"/>
      <point x="551" y="77" type="curve"/>
      <point x="511" y="20" type="line"/>
      <point x="549" y="-2"/>
      <point x="587" y="-10"/>
      <point x="628" y="-10" type="curve" smooth="yes"/>
      <point x="753" y="-10"/>
      <point x="859" y="83"/>
      <point x="859" y="281" type="curve" smooth="yes"/>
      <point x="859" y="456"/>
      <point x="755" y="546"/>
      <point x="628" y="546" type="curve" smooth="yes"/>
      <point x="572" y="546"/>
      <point x="499" y="520"/>
      <point x="456" y="452" type="curve"/>
      <point x="417" y="510"/>
      <point x="357" y="546"/>
      <point x="278" y="546" type="curve" smooth="yes"/>
      <point x="134" y="546"/>
      <point x="49" y="426"/>
      <point x="49" y="269" type="curve" smooth="yes"/>
      <point x="49" y="110"/>
      <point x="143" y="-10"/>
    </contour>
    <contour>
      <point x="277" y="58" type="curve" smooth="yes"/>
      <point x="188" y="58"/>
      <point x="139" y="142"/>
      <point x="139" y="269" type="curve" smooth="yes"/>
      <point x="139" y="396"/>
      <point x="187" y="479"/>
      <point x="276" y="479" type="curve" smooth="yes"/>
      <point x="371" y="479"/>
      <point x="416" y="396"/>
      <point x="416" y="269" type="curve" smooth="yes"/>
      <point x="416" y="142"/>
      <point x="371" y="58"/>
    </contour>
  </outline>
</glyph>
<glyph name="uni198F" format="2">
  <advance width="629"/>
  <unicode hex="198F"/>
  <outline>
    <contour>
      <point x="283" y="-278" type="curve" smooth="yes"/>
      <point x="484" y="-278"/>
      <point x="581" y="-80"/>
      <point x="581" y="169" type="curve" smooth="yes"/>
      <point x="581" y="373"/>
      <point x="478" y="546"/>
      <point x="278" y="546" type="curve" smooth="yes"/>
      <point x="121" y="546"/>
      <point x="49" y="463"/>
      <point x="49" y="409" type="curve" smooth="yes"/>
      <point x="49" y="343"/>
      <point x="88" y="313"/>
      <point x="139" y="292" type="curve"/>
      <point x="81" y="267"/>
      <point x="49" y="218"/>
      <point x="49" y="162" type="curve" smooth="yes"/>
      <point x="49" y="83"/>
      <point x="101" y="-10"/>
      <point x="256" y="-10" type="curve" smooth="yes"/>
      <point x="318" y="-10"/>
      <point x="358" y="7"/>
      <point x="398" y="28" type="curve"/>
      <point x="365" y="87" type="line"/>
      <point x="339" y="71"/>
      <point x="315" y="58"/>
      <point x="263" y="58" type="curve" smooth="yes"/>
      <point x="196" y="58"/>
      <point x="139" y="90"/>
      <point x="139" y="164" type="curve" smooth="yes"/>
      <point x="139" y="208"/>
      <point x="166" y="257"/>
      <point x="266" y="257" type="curve" smooth="yes"/>
      <point x="272" y="257"/>
      <point x="289" y="257"/>
      <point x="295" y="256" type="curve"/>
      <point x="295" y="315" type="line"/>
      <point x="290" y="315" type="line" smooth="yes"/>
      <point x="235" y="315"/>
      <point x="139" y="321"/>
      <point x="139" y="401" type="curve" smooth="yes"/>
      <point x="139" y="452"/>
      <point x="203" y="479"/>
      <point x="277" y="479" type="curve" smooth="yes"/>
      <point x="406" y="479"/>
      <point x="491" y="399"/>
      <point x="491" y="169" type="curve" smooth="yes"/>
      <point x="491" y="-13"/>
      <point x="473" y="-211"/>
      <point x="290" y="-211" type="curve" smooth="yes"/>
      <point x="270" y="-211"/>
      <point x="245" y="-205"/>
      <point x="222" y="-194" type="curve"/>
      <point x="189" y="-259" type="line"/>
      <point x="223" y="-273"/>
      <point x="253" y="-278"/>
    </contour>
  </outline>
</glyph>
<glyph name="uni1990" format="2">
  <advance width="914"/>
  <unicode hex="1990"/>
  <outline>
    <contour>
      <point x="621" y="-293" type="curve" smooth="yes"/>
      <point x="792" y="-293"/>
      <point x="848" y="-226"/>
      <point x="848" y="-167" type="curve" smooth="yes"/>
      <point x="848" y="-108"/>
      <point x="797" y="-50"/>
      <point x="646" y="-43" type="curve"/>
      <point x="650" y="-34"/>
      <point x="655" y="-22"/>
      <point x="658" y="-10" type="curve"/>
      <point x="766" y="-7"/>
      <point x="865" y="113"/>
      <point x="865" y="279" type="curve" smooth="yes"/>
      <point x="865" y="444"/>
      <point x="777" y="546"/>
      <point x="666" y="546" type="curve" smooth="yes"/>
      <point x="565" y="546"/>
      <point x="505" y="441"/>
      <point x="459" y="356" type="curve" smooth="yes"/>
      <point x="361" y="175" type="line" smooth="yes"/>
      <point x="323" y="105"/>
      <point x="293" y="58"/>
      <point x="249" y="58" type="curve" smooth="yes"/>
      <point x="192" y="58"/>
      <point x="139" y="115"/>
      <point x="139" y="258" type="curve" smooth="yes"/>
      <point x="139" y="392"/>
      <point x="183" y="479"/>
      <point x="261" y="479" type="curve" smooth="yes"/>
      <point x="297" y="479"/>
      <point x="329" y="466"/>
      <point x="354" y="431" type="curve"/>
      <point x="403" y="476" type="line"/>
      <point x="372" y="518"/>
      <point x="323" y="546"/>
      <point x="259" y="546" type="curve" smooth="yes"/>
      <point x="150" y="546"/>
      <point x="49" y="425"/>
      <point x="49" y="257" type="curve" smooth="yes"/>
      <point x="49" y="92"/>
      <point x="137" y="-10"/>
      <point x="248" y="-10" type="curve" smooth="yes"/>
      <point x="349" y="-10"/>
      <point x="409" y="95"/>
      <point x="455" y="180" type="curve" smooth="yes"/>
      <point x="552" y="361" type="line" smooth="yes"/>
      <point x="590" y="431"/>
      <point x="620" y="479"/>
      <point x="665" y="479" type="curve" smooth="yes"/>
      <point x="722" y="479"/>
      <point x="775" y="421"/>
      <point x="775" y="278" type="curve" smooth="yes"/>
      <point x="775" y="144"/>
      <point x="731" y="58"/>
      <point x="653" y="58" type="curve" smooth="yes"/>
      <point x="616" y="58"/>
      <point x="584" y="70"/>
      <point x="560" y="105" type="curve"/>
      <point x="510" y="61" type="line"/>
      <point x="533" y="30"/>
      <point x="565" y="7"/>
      <point x="605" y="-3" type="curve"/>
      <point x="598" y="-30"/>
      <point x="587" y="-58"/>
      <point x="574" y="-84" type="curve"/>
      <point x="585" y="-101" type="line"/>
      <point x="680" y="-104"/>
      <point x="763" y="-111"/>
      <point x="763" y="-162" type="curve" smooth="yes"/>
      <point x="763" y="-187"/>
      <point x="745" y="-227"/>
      <point x="619" y="-227" type="curve" smooth="yes"/>
      <point x="525" y="-227"/>
      <point x="406" y="-204"/>
      <point x="361" y="-181" type="curve"/>
      <point x="333" y="-238" type="line"/>
      <point x="415" y="-275"/>
      <point x="520" y="-293"/>
    </contour>
  </outline>
</glyph>
<glyph name="uni1991" format="2">
  <advance width="642"/>
  <unicode hex="1991"/>
  <outline>
    <contour>
      <point x="356" y="-10" type="curve" smooth="yes"/>
      <point x="537" y="-10"/>
      <point x="593" y="94"/>
      <point x="593" y="163" type="curve" smooth="yes"/>
      <point x="593" y="220"/>
      <point x="560" y="265"/>
      <point x="501" y="292" type="curve"/>
      <point x="553" y="312"/>
      <point x="593" y="346"/>
      <point x="593" y="408" type="curve" smooth="yes"/>
      <point x="593" y="476"/>
      <point x="528" y="546"/>
      <point x="403" y="546" type="curve" smooth="yes"/>
      <point x="354" y="546"/>
      <point x="291" y="531"/>
      <point x="253" y="504" type="curve"/>
      <point x="286" y="449" type="line"/>
      <point x="313" y="468"/>
      <point x="361" y="479"/>
      <point x="394" y="479" type="curve" smooth="yes"/>
      <point x="466" y="479"/>
      <point x="503" y="450"/>
      <point x="503" y="408" type="curve" smooth="yes"/>
      <point x="503" y="318"/>
      <point x="406" y="317"/>
      <point x="346" y="315" type="curve"/>
      <point x="346" y="256" type="line"/>
      <point x="352" y="257"/>
      <point x="369" y="257"/>
      <point x="375" y="257" type="curve" smooth="yes"/>
      <point x="476" y="257"/>
      <point x="503" y="208"/>
      <point x="503" y="164" type="curve" smooth="yes"/>
      <point x="503" y="90"/>
      <point x="443" y="58"/>
      <point x="357" y="58" type="curve" smooth="yes"/>
      <point x="233" y="58"/>
      <point x="139" y="171"/>
      <point x="139" y="401" type="curve" smooth="yes"/>
      <point x="139" y="583"/>
      <point x="173" y="782"/>
      <point x="340" y="782" type="curve" smooth="yes"/>
      <point x="380" y="782"/>
      <point x="434" y="763"/>
      <point x="461" y="713" type="curve"/>
      <point x="526" y="764" type="line"/>
      <point x="473" y="832"/>
      <point x="396" y="850"/>
      <point x="342" y="850" type="curve" smooth="yes"/>
      <point x="171" y="850"/>
      <point x="49" y="638"/>
      <point x="49" y="401" type="curve" smooth="yes"/>
      <point x="49" y="174"/>
      <point x="161" y="-10"/>
    </contour>
  </outline>
</glyph>
<glyph name="uni1992" format="2">
  <advance width="749"/>
  <unicode hex="1992"/>
  <outline>
    <contour>
      <point x="233" y="-10" type="curve" smooth="yes"/>
      <point x="291" y="-10"/>
      <point x="345" y="13"/>
      <point x="374" y="86" type="curve"/>
      <point x="403" y="13"/>
      <point x="458" y="-10"/>
      <point x="515" y="-10" type="curve" smooth="yes"/>
      <point x="642" y="-10"/>
      <point x="700" y="102"/>
      <point x="700" y="231" type="curve" smooth="yes"/>
      <point x="700" y="428"/>
      <point x="544" y="546"/>
      <point x="375" y="546" type="curve" smooth="yes"/>
      <point x="199" y="546"/>
      <point x="49" y="429"/>
      <point x="49" y="231" type="curve" smooth="yes"/>
      <point x="49" y="102"/>
      <point x="106" y="-10"/>
    </contour>
    <contour>
      <point x="226" y="58" type="curve" smooth="yes"/>
      <point x="167" y="58"/>
      <point x="139" y="120"/>
      <point x="139" y="237" type="curve" smooth="yes"/>
      <point x="139" y="391"/>
      <point x="230" y="479"/>
      <point x="375" y="479" type="curve" smooth="yes"/>
      <point x="515" y="479"/>
      <point x="610" y="391"/>
      <point x="610" y="237" type="curve" smooth="yes"/>
      <point x="610" y="120"/>
      <point x="582" y="58"/>
      <point x="523" y="58" type="curve" smooth="yes"/>
      <point x="465" y="58"/>
      <point x="427" y="102"/>
      <point x="416" y="210" type="curve"/>
      <point x="333" y="210" type="line"/>
      <point x="322" y="102"/>
      <point x="283" y="58"/>
    </contour>
  </outline>
</glyph>
<glyph name="uni1993" format="2">
  <advance width="576"/>
  <unicode hex="1993"/>
  <outline>
    <contour>
      <point x="276" y="-278" type="curve" smooth="yes"/>
      <point x="464" y="-278"/>
      <point x="524" y="-167"/>
      <point x="524" y="-85" type="curve" smooth="yes"/>
      <point x="524" y="3"/>
      <point x="450" y="77"/>
      <point x="335" y="77" type="curve" smooth="yes"/>
      <point x="278" y="77"/>
      <point x="251" y="63"/>
      <point x="209" y="63" type="curve" smooth="yes"/>
      <point x="165" y="63"/>
      <point x="139" y="152"/>
      <point x="139" y="266" type="curve" smooth="yes"/>
      <point x="139" y="404"/>
      <point x="183" y="479"/>
      <point x="297" y="479" type="curve" smooth="yes"/>
      <point x="352" y="479"/>
      <point x="393" y="454"/>
      <point x="420" y="410" type="curve"/>
      <point x="485" y="460" type="line"/>
      <point x="436" y="516"/>
      <point x="377" y="546"/>
      <point x="297" y="546" type="curve" smooth="yes"/>
      <point x="153" y="546"/>
      <point x="49" y="412"/>
      <point x="49" y="260" type="curve" smooth="yes"/>
      <point x="49" y="87"/>
      <point x="124" y="-5"/>
      <point x="195" y="-5" type="curve" smooth="yes"/>
      <point x="253" y="-5"/>
      <point x="288" y="10"/>
      <point x="327" y="10" type="curve" smooth="yes"/>
      <point x="407" y="10"/>
      <point x="435" y="-43"/>
      <point x="435" y="-86" type="curve" smooth="yes"/>
      <point x="435" y="-148"/>
      <point x="404" y="-211"/>
      <point x="276" y="-211" type="curve" smooth="yes"/>
      <point x="201" y="-211"/>
      <point x="130" y="-168"/>
      <point x="92" y="-122" type="curve"/>
      <point x="33" y="-166" type="line"/>
      <point x="97" y="-246"/>
      <point x="206" y="-278"/>
    </contour>
  </outline>
</glyph>
<glyph name="uni1994" format="2">
  <advance width="635"/>
  <unicode hex="1994"/>
  <outline>
    <contour>
      <point x="299" y="-10" type="curve" smooth="yes"/>
      <point x="506" y="-10"/>
      <point x="564" y="162"/>
      <point x="564" y="401" type="curve" smooth="yes"/>
      <point x="564" y="682"/>
      <point x="581" y="782"/>
      <point x="655" y="782" type="curve" smooth="yes"/>
      <point x="670" y="782"/>
      <point x="681" y="781"/>
      <point x="700" y="775" type="curve"/>
      <point x="732" y="837" type="line"/>
      <point x="705" y="847"/>
      <point x="690" y="850"/>
      <point x="670" y="850" type="curve" smooth="yes"/>
      <point x="542" y="850"/>
      <point x="478" y="663"/>
      <point x="478" y="464" type="curve" smooth="yes"/>
      <point x="478" y="364" type="line" smooth="yes"/>
      <point x="478" y="162"/>
      <point x="446" y="58"/>
      <point x="302" y="58" type="curve" smooth="yes"/>
      <point x="189" y="58"/>
      <point x="139" y="145"/>
      <point x="139" y="265" type="curve" smooth="yes"/>
      <point x="139" y="368"/>
      <point x="165" y="440"/>
      <point x="238" y="477" type="curve"/>
      <point x="210" y="541" type="line"/>
      <point x="115" y="493"/>
      <point x="49" y="387"/>
      <point x="49" y="266" type="curve" smooth="yes"/>
      <point x="49" y="105"/>
      <point x="162" y="-10"/>
    </contour>
  </outline>
</glyph>
<glyph name="uni1995" format="2">
  <advance width="833"/>
  <unicode hex="1995"/>
  <outline>
    <contour>
      <point x="289" y="-10" type="curve" smooth="yes"/>
      <point x="388" y="-10"/>
      <point x="486" y="17"/>
      <point x="566" y="65" type="curve"/>
      <point x="623" y="18"/>
      <point x="691" y="-10"/>
      <point x="759" y="-10" type="curve" smooth="yes"/>
      <point x="795" y="-10"/>
      <point x="820" y="-6"/>
      <point x="853" y="9" type="curve"/>
      <point x="824" y="68" type="line"/>
      <point x="805" y="61"/>
      <point x="780" y="58"/>
      <point x="762" y="58" type="curve" smooth="yes"/>
      <point x="717" y="58"/>
      <point x="671" y="78"/>
      <point x="631" y="113" type="curve"/>
      <point x="702" y="176"/>
      <point x="748" y="262"/>
      <point x="748" y="366" type="curve" smooth="yes"/>
      <point x="748" y="506"/>
      <point x="649" y="546"/>
      <point x="585" y="546" type="curve" smooth="yes"/>
      <point x="479" y="546"/>
      <point x="425" y="457"/>
      <point x="425" y="365" type="curve" smooth="yes"/>
      <point x="425" y="271"/>
      <point x="459" y="184"/>
      <point x="514" y="117" type="curve"/>
      <point x="448" y="78"/>
      <point x="367" y="58"/>
      <point x="288" y="58" type="curve" smooth="yes"/>
      <point x="200" y="58"/>
      <point x="139" y="90"/>
      <point x="139" y="164" type="curve" smooth="yes"/>
      <point x="139" y="208"/>
      <point x="166" y="257"/>
      <point x="266" y="257" type="curve" smooth="yes"/>
      <point x="272" y="257"/>
      <point x="289" y="257"/>
      <point x="295" y="256" type="curve"/>
      <point x="295" y="315" type="line"/>
      <point x="290" y="315" type="line" smooth="yes"/>
      <point x="235" y="315"/>
      <point x="139" y="318"/>
      <point x="139" y="408" type="curve" smooth="yes"/>
      <point x="139" y="450"/>
      <point x="176" y="479"/>
      <point x="248" y="479" type="curve" smooth="yes"/>
      <point x="280" y="479"/>
      <point x="328" y="468"/>
      <point x="355" y="449" type="curve"/>
      <point x="389" y="504" type="line"/>
      <point x="351" y="531"/>
      <point x="288" y="546"/>
      <point x="238" y="546" type="curve" smooth="yes"/>
      <point x="113" y="546"/>
      <point x="49" y="477"/>
      <point x="49" y="412" type="curve" smooth="yes"/>
      <point x="49" y="345"/>
      <point x="88" y="313"/>
      <point x="139" y="292" type="curve"/>
      <point x="81" y="267"/>
      <point x="49" y="219"/>
      <point x="49" y="163" type="curve" smooth="yes"/>
      <point x="49" y="94"/>
      <point x="93" y="-10"/>
    </contour>
    <contour>
      <point x="581" y="169" type="curve"/>
      <point x="542" y="225"/>
      <point x="515" y="296"/>
      <point x="515" y="373" type="curve" smooth="yes"/>
      <point x="515" y="446"/>
      <point x="538" y="479"/>
      <point x="585" y="479" type="curve" smooth="yes"/>
      <point x="634" y="479"/>
      <point x="658" y="450"/>
      <point x="658" y="364" type="curve" smooth="yes"/>
      <point x="658" y="283"/>
      <point x="628" y="218"/>
    </contour>
  </outline>
</glyph>
<glyph name="uni1996" format="2">
  <advance width="914"/>
  <unicode hex="1996"/>
  <outline>
    <contour>
      <point x="647" y="-293" type="curve" smooth="yes"/>
      <point x="748" y="-293"/>
      <point x="853" y="-275"/>
      <point x="936" y="-238" type="curve"/>
      <point x="907" y="-181" type="line"/>
      <point x="862" y="-204"/>
      <point x="743" y="-227"/>
      <point x="649" y="-227" type="curve" smooth="yes"/>
      <point x="523" y="-227"/>
      <point x="505" y="-187"/>
      <point x="505" y="-162" type="curve" smooth="yes"/>
      <point x="505" y="-111"/>
      <point x="588" y="-104"/>
      <point x="683" y="-101" type="curve"/>
      <point x="694" y="-84" type="line"/>
      <point x="682" y="-60"/>
      <point x="671" y="-34"/>
      <point x="665" y="-9" type="curve"/>
      <point x="770" y="-2"/>
      <point x="865" y="116"/>
      <point x="865" y="279" type="curve" smooth="yes"/>
      <point x="865" y="444"/>
      <point x="777" y="546"/>
      <point x="666" y="546" type="curve" smooth="yes"/>
      <point x="565" y="546"/>
      <point x="505" y="441"/>
      <point x="459" y="356" type="curve" smooth="yes"/>
      <point x="361" y="175" type="line" smooth="yes"/>
      <point x="323" y="105"/>
      <point x="293" y="58"/>
      <point x="249" y="58" type="curve" smooth="yes"/>
      <point x="192" y="58"/>
      <point x="139" y="115"/>
      <point x="139" y="258" type="curve" smooth="yes"/>
      <point x="139" y="392"/>
      <point x="183" y="479"/>
      <point x="261" y="479" type="curve" smooth="yes"/>
      <point x="297" y="479"/>
      <point x="329" y="466"/>
      <point x="354" y="431" type="curve"/>
      <point x="403" y="476" type="line"/>
      <point x="372" y="518"/>
      <point x="323" y="546"/>
      <point x="259" y="546" type="curve" smooth="yes"/>
      <point x="150" y="546"/>
      <point x="49" y="425"/>
      <point x="49" y="257" type="curve" smooth="yes"/>
      <point x="49" y="92"/>
      <point x="137" y="-10"/>
      <point x="248" y="-10" type="curve" smooth="yes"/>
      <point x="349" y="-10"/>
      <point x="409" y="95"/>
      <point x="455" y="180" type="curve" smooth="yes"/>
      <point x="552" y="361" type="line" smooth="yes"/>
      <point x="590" y="431"/>
      <point x="620" y="479"/>
      <point x="665" y="479" type="curve" smooth="yes"/>
      <point x="722" y="479"/>
      <point x="775" y="421"/>
      <point x="775" y="278" type="curve" smooth="yes"/>
      <point x="775" y="144"/>
      <point x="731" y="58"/>
      <point x="653" y="58" type="curve" smooth="yes"/>
      <point x="616" y="58"/>
      <point x="584" y="70"/>
      <point x="560" y="105" type="curve"/>
      <point x="510" y="61" type="line"/>
      <point x="534" y="29"/>
      <point x="567" y="5"/>
      <point x="609" y="-4" type="curve"/>
      <point x="612" y="-19"/>
      <point x="617" y="-33"/>
      <point x="622" y="-43" type="curve"/>
      <point x="471" y="-50"/>
      <point x="420" y="-108"/>
      <point x="420" y="-167" type="curve" smooth="yes"/>
      <point x="420" y="-226"/>
      <point x="477" y="-293"/>
    </contour>
  </outline>
</glyph>
<glyph name="uni1997" format="2">
  <advance width="908"/>
  <unicode hex="1997"/>
  <outline>
    <contour>
      <point x="457" y="-293" type="curve" smooth="yes"/>
      <point x="737" y="-293"/>
      <point x="859" y="-63"/>
      <point x="859" y="271" type="curve" smooth="yes"/>
      <point x="859" y="276" type="line" smooth="yes"/>
      <point x="859" y="451"/>
      <point x="755" y="546"/>
      <point x="628" y="546" type="curve" smooth="yes"/>
      <point x="567" y="546"/>
      <point x="492" y="515"/>
      <point x="454" y="436" type="curve"/>
      <point x="416" y="515"/>
      <point x="340" y="546"/>
      <point x="280" y="546" type="curve" smooth="yes"/>
      <point x="153" y="546"/>
      <point x="49" y="451"/>
      <point x="49" y="276" type="curve" smooth="yes"/>
      <point x="49" y="78"/>
      <point x="165" y="-10"/>
      <point x="280" y="-10" type="curve" smooth="yes"/>
      <point x="321" y="-10"/>
      <point x="359" y="-2"/>
      <point x="397" y="20" type="curve"/>
      <point x="357" y="77" type="line"/>
      <point x="333" y="63"/>
      <point x="307" y="58"/>
      <point x="284" y="58" type="curve" smooth="yes"/>
      <point x="196" y="58"/>
      <point x="139" y="126"/>
      <point x="139" y="275" type="curve" smooth="yes"/>
      <point x="139" y="404"/>
      <point x="192" y="479"/>
      <point x="283" y="479" type="curve" smooth="yes"/>
      <point x="361" y="479"/>
      <point x="406" y="416"/>
      <point x="413" y="324" type="curve"/>
      <point x="496" y="324" type="line"/>
      <point x="502" y="416"/>
      <point x="547" y="479"/>
      <point x="625" y="479" type="curve" smooth="yes"/>
      <point x="716" y="479"/>
      <point x="770" y="404"/>
      <point x="770" y="275" type="curve" smooth="yes"/>
      <point x="770" y="126"/>
      <point x="712" y="58"/>
      <point x="624" y="58" type="curve" smooth="yes"/>
      <point x="602" y="58"/>
      <point x="576" y="63"/>
      <point x="551" y="77" type="curve"/>
      <point x="511" y="20" type="line"/>
      <point x="549" y="-2"/>
      <point x="587" y="-10"/>
      <point x="628" y="-10" type="curve" smooth="yes"/>
      <point x="669" y="-10"/>
      <point x="711" y="2"/>
      <point x="748" y="26" type="curve"/>
      <point x="715" y="-118"/>
      <point x="648" y="-234"/>
      <point x="463" y="-234" type="curve" smooth="yes"/>
      <point x="341" y="-234"/>
      <point x="298" y="-206"/>
      <point x="298" y="-168" type="curve" smooth="yes"/>
      <point x="298" y="-130"/>
      <point x="326" y="-100"/>
      <point x="435" y="-100" type="curve" smooth="yes"/>
      <point x="508" y="-100"/>
      <point x="524" y="-115"/>
      <point x="524" y="-125" type="curve" smooth="yes"/>
      <point x="524" y="-141"/>
      <point x="501" y="-150"/>
      <point x="467" y="-150" type="curve" smooth="yes"/>
      <point x="453" y="-150"/>
      <point x="434" y="-148"/>
      <point x="417" y="-147" type="curve"/>
      <point x="431" y="-202" type="line"/>
      <point x="442" y="-203"/>
      <point x="454" y="-204"/>
      <point x="465" y="-204" type="curve" smooth="yes"/>
      <point x="557" y="-204"/>
      <point x="597" y="-163"/>
      <point x="597" y="-124" type="curve" smooth="yes"/>
      <point x="597" y="-78"/>
      <point x="541" y="-42"/>
      <point x="430" y="-42" type="curve" smooth="yes"/>
      <point x="290" y="-42"/>
      <point x="225" y="-111"/>
      <point x="225" y="-169" type="curve" smooth="yes"/>
      <point x="225" y="-232"/>
      <point x="280" y="-293"/>
    </contour>
  </outline>
</glyph>
<glyph name="uni1998" format="2">
  <advance width="929"/>
  <unicode hex="1998"/>
  <outline>
    <contour>
      <point x="254" y="-10" type="curve" smooth="yes"/>
      <point x="387" y="-10"/>
      <point x="494" y="80"/>
      <point x="494" y="270" type="curve" smooth="yes"/>
      <point x="494" y="300"/>
      <point x="492" y="328"/>
      <point x="487" y="353" type="curve"/>
      <point x="509" y="427"/>
      <point x="558" y="479"/>
      <point x="634" y="479" type="curve" smooth="yes"/>
      <point x="727" y="479"/>
      <point x="790" y="407"/>
      <point x="790" y="273" type="curve" smooth="yes"/>
      <point x="790" y="139"/>
      <point x="746" y="58"/>
      <point x="667" y="58" type="curve" smooth="yes"/>
      <point x="631" y="58"/>
      <point x="599" y="70"/>
      <point x="575" y="105" type="curve"/>
      <point x="525" y="61" type="line"/>
      <point x="556" y="19"/>
      <point x="605" y="-10"/>
      <point x="669" y="-10" type="curve" smooth="yes"/>
      <point x="797" y="-10"/>
      <point x="880" y="112"/>
      <point x="880" y="270" type="curve" smooth="yes"/>
      <point x="880" y="468"/>
      <point x="764" y="546"/>
      <point x="645" y="546" type="curve" smooth="yes"/>
      <point x="585" y="546"/>
      <point x="510" y="526"/>
      <point x="448" y="452" type="curve"/>
      <point x="404" y="518"/>
      <point x="333" y="546"/>
      <point x="253" y="546" type="curve" smooth="yes"/>
      <point x="184" y="546"/>
      <point x="108" y="516"/>
      <point x="58" y="447" type="curve"/>
      <point x="122" y="410" type="line"/>
      <point x="155" y="460"/>
      <point x="208" y="479"/>
      <point x="249" y="479" type="curve" smooth="yes"/>
      <point x="346" y="479"/>
      <point x="404" y="405"/>
      <point x="404" y="271" type="curve" smooth="yes"/>
      <point x="404" y="142"/>
      <point x="345" y="58"/>
      <point x="254" y="58" type="curve" smooth="yes"/>
      <point x="186" y="58"/>
      <point x="125" y="106"/>
      <point x="104" y="153" type="curve"/>
      <point x="39" y="116" type="line"/>
      <point x="98" y="19"/>
      <point x="183" y="-10"/>
    </contour>
  </outline>
</glyph>
<glyph name="uni1999" format="2">
  <advance width="611"/>
  <unicode hex="1999"/>
  <outline>
    <contour>
      <point x="312" y="-278" type="curve" smooth="yes"/>
      <point x="445" y="-278"/>
      <point x="552" y="-184"/>
      <point x="552" y="-13" type="curve" smooth="yes"/>
      <point x="552" y="39"/>
      <point x="542" y="83"/>
      <point x="526" y="120" type="curve"/>
      <point x="549" y="161"/>
      <point x="563" y="211"/>
      <point x="563" y="269" type="curve" smooth="yes"/>
      <point x="563" y="410"/>
      <point x="481" y="498"/>
      <point x="401" y="541" type="curve"/>
      <point x="374" y="477" type="line"/>
      <point x="435" y="451"/>
      <point x="473" y="383"/>
      <point x="473" y="266" type="curve" smooth="yes"/>
      <point x="473" y="241"/>
      <point x="470" y="218"/>
      <point x="466" y="198" type="curve"/>
      <point x="424" y="231"/>
      <point x="370" y="248"/>
      <point x="311" y="248" type="curve" smooth="yes"/>
      <point x="255" y="248"/>
      <point x="195" y="229"/>
      <point x="147" y="185" type="curve"/>
      <point x="142" y="209"/>
      <point x="139" y="236"/>
      <point x="139" y="266" type="curve" smooth="yes"/>
      <point x="139" y="383"/>
      <point x="177" y="451"/>
      <point x="238" y="477" type="curve"/>
      <point x="210" y="541" type="line"/>
      <point x="120" y="493"/>
      <point x="49" y="393"/>
      <point x="49" y="269" type="curve" smooth="yes"/>
      <point x="49" y="100"/>
      <point x="165" y="-10"/>
      <point x="306" y="-10" type="curve" smooth="yes"/>
      <point x="362" y="-10"/>
      <point x="415" y="8"/>
      <point x="458" y="41" type="curve"/>
      <point x="460" y="24"/>
      <point x="462" y="6"/>
      <point x="462" y="-12" type="curve" smooth="yes"/>
      <point x="462" y="-126"/>
      <point x="402" y="-211"/>
      <point x="312" y="-211" type="curve" smooth="yes"/>
      <point x="244" y="-211"/>
      <point x="183" y="-162"/>
      <point x="161" y="-116" type="curve"/>
      <point x="97" y="-152" type="line"/>
      <point x="156" y="-250"/>
      <point x="241" y="-278"/>
    </contour>
    <contour>
      <point x="306" y="58" type="curve" smooth="yes"/>
      <point x="249" y="58"/>
      <point x="207" y="78"/>
      <point x="180" y="113" type="curve"/>
      <point x="213" y="163"/>
      <point x="266" y="181"/>
      <point x="306" y="181" type="curve" smooth="yes"/>
      <point x="362" y="181"/>
      <point x="405" y="157"/>
      <point x="431" y="114" type="curve"/>
      <point x="402" y="76"/>
      <point x="360" y="58"/>
    </contour>
  </outline>
</glyph>
<glyph name="uni199A" format="2">
  <advance width="642"/>
  <unicode hex="199A"/>
  <outline>
    <contour>
      <point x="286" y="-10" type="curve" smooth="yes"/>
      <point x="476" y="-10"/>
      <point x="593" y="151"/>
      <point x="593" y="358" type="curve" smooth="yes"/>
      <point x="593" y="458"/>
      <point x="556" y="646"/>
      <point x="504" y="715" type="curve"/>
      <point x="468" y="707" type="line"/>
      <point x="446" y="686"/>
      <point x="372" y="670"/>
      <point x="306" y="670" type="curve" smooth="yes"/>
      <point x="219" y="670"/>
      <point x="162" y="690"/>
      <point x="162" y="728" type="curve" smooth="yes"/>
      <point x="162" y="766"/>
      <point x="219" y="786"/>
      <point x="306" y="786" type="curve" smooth="yes"/>
      <point x="360" y="786"/>
      <point x="406" y="779"/>
      <point x="433" y="764" type="curve"/>
      <point x="469" y="820" type="line"/>
      <point x="431" y="839"/>
      <point x="376" y="850"/>
      <point x="308" y="850" type="curve" smooth="yes"/>
      <point x="159" y="850"/>
      <point x="74" y="796"/>
      <point x="74" y="727" type="curve" smooth="yes"/>
      <point x="74" y="658"/>
      <point x="157" y="605"/>
      <point x="308" y="605" type="curve" smooth="yes"/>
      <point x="380" y="605"/>
      <point x="438" y="617"/>
      <point x="476" y="638" type="curve"/>
      <point x="495" y="572"/>
      <point x="503" y="457"/>
      <point x="503" y="384" type="curve" smooth="yes"/>
      <point x="503" y="155"/>
      <point x="428" y="58"/>
      <point x="285" y="58" type="curve" smooth="yes"/>
      <point x="199" y="58"/>
      <point x="139" y="90"/>
      <point x="139" y="164" type="curve" smooth="yes"/>
      <point x="139" y="208"/>
      <point x="166" y="257"/>
      <point x="266" y="257" type="curve" smooth="yes"/>
      <point x="272" y="257"/>
      <point x="290" y="257"/>
      <point x="296" y="256" type="curve"/>
      <point x="296" y="315" type="line"/>
      <point x="235" y="317"/>
      <point x="139" y="318"/>
      <point x="139" y="408" type="curve" smooth="yes"/>
      <point x="139" y="450"/>
      <point x="176" y="479"/>
      <point x="248" y="479" type="curve" smooth="yes"/>
      <point x="280" y="479"/>
      <point x="328" y="468"/>
      <point x="355" y="449" type="curve"/>
      <point x="389" y="504" type="line"/>
      <point x="351" y="531"/>
      <point x="288" y="546"/>
      <point x="238" y="546" type="curve" smooth="yes"/>
      <point x="113" y="546"/>
      <point x="49" y="476"/>
      <point x="49" y="408" type="curve" smooth="yes"/>
      <point x="49" y="346"/>
      <point x="89" y="312"/>
      <point x="141" y="292" type="curve"/>
      <point x="82" y="265"/>
      <point x="49" y="220"/>
      <point x="49" y="163" type="curve" smooth="yes"/>
      <point x="49" y="94"/>
      <point x="105" y="-10"/>
    </contour>
  </outline>
</glyph>
<glyph name="uni199C" format="2">
  <advance width="914"/>
  <unicode hex="199C"/>
  <outline>
    <contour>
      <point x="264" y="-293" type="curve" smooth="yes"/>
      <point x="316" y="-293"/>
      <point x="354" y="-280"/>
      <point x="384" y="-252" type="curve"/>
      <point x="342" y="-206" type="line"/>
      <point x="321" y="-227"/>
      <point x="294" y="-234"/>
      <point x="266" y="-234" type="curve" smooth="yes"/>
      <point x="238" y="-234"/>
      <point x="195" y="-218"/>
      <point x="195" y="-174" type="curve" smooth="yes"/>
      <point x="195" y="-138"/>
      <point x="218" y="-107"/>
      <point x="278" y="-107" type="curve" smooth="yes"/>
      <point x="395" y="-107"/>
      <point x="506" y="-293"/>
      <point x="651" y="-293" type="curve" smooth="yes"/>
      <point x="762" y="-293"/>
      <point x="831" y="-180"/>
      <point x="831" y="-15" type="curve" smooth="yes"/>
      <point x="831" y="21"/>
      <point x="825" y="59"/>
      <point x="816" y="95" type="curve"/>
      <point x="846" y="144"/>
      <point x="865" y="207"/>
      <point x="865" y="279" type="curve" smooth="yes"/>
      <point x="865" y="444"/>
      <point x="777" y="546"/>
      <point x="666" y="546" type="curve" smooth="yes"/>
      <point x="565" y="546"/>
      <point x="505" y="441"/>
      <point x="459" y="356" type="curve" smooth="yes"/>
      <point x="361" y="175" type="line" smooth="yes"/>
      <point x="323" y="105"/>
      <point x="293" y="58"/>
      <point x="249" y="58" type="curve" smooth="yes"/>
      <point x="192" y="58"/>
      <point x="139" y="115"/>
      <point x="139" y="258" type="curve" smooth="yes"/>
      <point x="139" y="392"/>
      <point x="183" y="479"/>
      <point x="261" y="479" type="curve" smooth="yes"/>
      <point x="297" y="479"/>
      <point x="329" y="466"/>
      <point x="354" y="431" type="curve"/>
      <point x="403" y="476" type="line"/>
      <point x="372" y="518"/>
      <point x="323" y="546"/>
      <point x="259" y="546" type="curve" smooth="yes"/>
      <point x="150" y="546"/>
      <point x="49" y="425"/>
      <point x="49" y="257" type="curve" smooth="yes"/>
      <point x="49" y="92"/>
      <point x="137" y="-10"/>
      <point x="248" y="-10" type="curve" smooth="yes"/>
      <point x="349" y="-10"/>
      <point x="409" y="95"/>
      <point x="455" y="180" type="curve" smooth="yes"/>
      <point x="552" y="361" type="line" smooth="yes"/>
      <point x="590" y="431"/>
      <point x="620" y="479"/>
      <point x="665" y="479" type="curve" smooth="yes"/>
      <point x="722" y="479"/>
      <point x="775" y="421"/>
      <point x="775" y="278" type="curve" smooth="yes"/>
      <point x="775" y="144"/>
      <point x="731" y="58"/>
      <point x="653" y="58" type="curve" smooth="yes"/>
      <point x="616" y="58"/>
      <point x="584" y="70"/>
      <point x="560" y="105" type="curve"/>
      <point x="510" y="61" type="line"/>
      <point x="542" y="19"/>
      <point x="591" y="-10"/>
      <point x="654" y="-10" type="curve" smooth="yes"/>
      <point x="687" y="-10"/>
      <point x="719" y="1"/>
      <point x="748" y="21" type="curve"/>
      <point x="750" y="6"/>
      <point x="752" y="-10"/>
      <point x="752" y="-25" type="curve" smooth="yes"/>
      <point x="752" y="-183"/>
      <point x="707" y="-234"/>
      <point x="650" y="-234" type="curve" smooth="yes"/>
      <point x="559" y="-234"/>
      <point x="438" y="-49"/>
      <point x="276" y="-49" type="curve" smooth="yes"/>
      <point x="172" y="-49"/>
      <point x="122" y="-113"/>
      <point x="122" y="-177" type="curve" smooth="yes"/>
      <point x="122" y="-234"/>
      <point x="163" y="-293"/>
    </contour>
  </outline>
</glyph>
<glyph name="uni199E" format="2">
  <advance width="554"/>
  <unicode hex="199E"/>
  <outline>
    <contour>
      <point x="275" y="-10" type="curve" smooth="yes"/>
      <point x="423" y="-10"/>
      <point x="505" y="110"/>
      <point x="505" y="269" type="curve" smooth="yes"/>
      <point x="505" y="426"/>
      <point x="422" y="546"/>
      <point x="278" y="546" type="curve" smooth="yes"/>
      <point x="134" y="546"/>
      <point x="49" y="426"/>
      <point x="49" y="269" type="curve" smooth="yes"/>
      <point x="49" y="110"/>
      <point x="143" y="-10"/>
    </contour>
    <contour>
      <point x="277" y="58" type="curve" smooth="yes"/>
      <point x="188" y="58"/>
      <point x="139" y="142"/>
      <point x="139" y="269" type="curve" smooth="yes"/>
      <point x="139" y="396"/>
      <point x="187" y="479"/>
      <point x="276" y="479" type="curve" smooth="yes"/>
      <point x="371" y="479"/>
      <point x="416" y="396"/>
      <point x="416" y="269" type="curve" smooth="yes"/>
      <point x="416" y="142"/>
      <point x="371" y="58"/>
    </contour>
  </outline>
</glyph>
<glyph name="uni199F" format="2">
  <advance width="914"/>
  <unicode hex="199F"/>
  <outline>
    <contour>
      <point x="259" y="-10" type="curve" smooth="yes"/>
      <point x="323" y="-10"/>
      <point x="372" y="19"/>
      <point x="403" y="61" type="curve"/>
      <point x="354" y="105" type="line"/>
      <point x="329" y="70"/>
      <point x="297" y="58"/>
      <point x="261" y="58" type="curve" smooth="yes"/>
      <point x="183" y="58"/>
      <point x="139" y="144"/>
      <point x="139" y="278" type="curve" smooth="yes"/>
      <point x="139" y="421"/>
      <point x="192" y="479"/>
      <point x="249" y="479" type="curve" smooth="yes"/>
      <point x="293" y="479"/>
      <point x="323" y="431"/>
      <point x="361" y="361" type="curve" smooth="yes"/>
      <point x="459" y="180" type="line" smooth="yes"/>
      <point x="505" y="95"/>
      <point x="565" y="-10"/>
      <point x="666" y="-10" type="curve" smooth="yes"/>
      <point x="777" y="-10"/>
      <point x="865" y="92"/>
      <point x="865" y="257" type="curve" smooth="yes"/>
      <point x="865" y="425"/>
      <point x="764" y="546"/>
      <point x="654" y="546" type="curve" smooth="yes"/>
      <point x="591" y="546"/>
      <point x="542" y="518"/>
      <point x="510" y="476" type="curve"/>
      <point x="560" y="431" type="line"/>
      <point x="584" y="466"/>
      <point x="616" y="479"/>
      <point x="653" y="479" type="curve" smooth="yes"/>
      <point x="731" y="479"/>
      <point x="775" y="392"/>
      <point x="775" y="258" type="curve" smooth="yes"/>
      <point x="775" y="115"/>
      <point x="722" y="58"/>
      <point x="665" y="58" type="curve" smooth="yes"/>
      <point x="620" y="58"/>
      <point x="590" y="105"/>
      <point x="552" y="175" type="curve" smooth="yes"/>
      <point x="455" y="356" type="line" smooth="yes"/>
      <point x="409" y="441"/>
      <point x="349" y="546"/>
      <point x="248" y="546" type="curve" smooth="yes"/>
      <point x="137" y="546"/>
      <point x="49" y="444"/>
      <point x="49" y="279" type="curve" smooth="yes"/>
      <point x="49" y="111"/>
      <point x="150" y="-10"/>
    </contour>
  </outline>
</glyph>
<glyph name="uni19A0" format="2">
  <advance width="914"/>
  <unicode hex="19A0"/>
  <outline>
    <contour>
      <point x="248" y="-10" type="curve" smooth="yes"/>
      <point x="349" y="-10"/>
      <point x="409" y="95"/>
      <point x="455" y="180" type="curve" smooth="yes"/>
      <point x="552" y="361" type="line" smooth="yes"/>
      <point x="590" y="431"/>
      <point x="620" y="479"/>
      <point x="665" y="479" type="curve" smooth="yes"/>
      <point x="722" y="479"/>
      <point x="775" y="421"/>
      <point x="775" y="278" type="curve" smooth="yes"/>
      <point x="775" y="144"/>
      <point x="731" y="58"/>
      <point x="653" y="58" type="curve" smooth="yes"/>
      <point x="616" y="58"/>
      <point x="584" y="70"/>
      <point x="560" y="105" type="curve"/>
      <point x="510" y="61" type="line"/>
      <point x="542" y="19"/>
      <point x="591" y="-10"/>
      <point x="654" y="-10" type="curve" smooth="yes"/>
      <point x="764" y="-10"/>
      <point x="865" y="111"/>
      <point x="865" y="279" type="curve" smooth="yes"/>
      <point x="865" y="444"/>
      <point x="777" y="546"/>
      <point x="666" y="546" type="curve" smooth="yes"/>
      <point x="565" y="546"/>
      <point x="505" y="441"/>
      <point x="459" y="356" type="curve" smooth="yes"/>
      <point x="361" y="175" type="line" smooth="yes"/>
      <point x="323" y="105"/>
      <point x="293" y="58"/>
      <point x="249" y="58" type="curve" smooth="yes"/>
      <point x="192" y="58"/>
      <point x="139" y="115"/>
      <point x="139" y="258" type="curve" smooth="yes"/>
      <point x="139" y="392"/>
      <point x="183" y="479"/>
      <point x="261" y="479" type="curve" smooth="yes"/>
      <point x="297" y="479"/>
      <point x="329" y="466"/>
      <point x="354" y="431" type="curve"/>
      <point x="403" y="476" type="line"/>
      <point x="372" y="518"/>
      <point x="323" y="546"/>
      <point x="259" y="546" type="curve" smooth="yes"/>
      <point x="150" y="546"/>
      <point x="49" y="425"/>
      <point x="49" y="257" type="curve" smooth="yes"/>
      <point x="49" y="92"/>
      <point x="137" y="-10"/>
    </contour>
  </outline>
</glyph>
<glyph name="uni19A1" format="2">
  <advance width="543"/>
  <unicode hex="19A1"/>
  <outline>
    <contour>
      <point x="237" y="-278" type="curve" smooth="yes"/>
      <point x="425" y="-278"/>
      <point x="485" y="-167"/>
      <point x="485" y="-85" type="curve" smooth="yes"/>
      <point x="485" y="-29"/>
      <point x="453" y="14"/>
      <point x="395" y="42" type="curve"/>
      <point x="456" y="86"/>
      <point x="494" y="171"/>
      <point x="494" y="270" type="curve" smooth="yes"/>
      <point x="494" y="468"/>
      <point x="378" y="546"/>
      <point x="259" y="546" type="curve" smooth="yes"/>
      <point x="197" y="546"/>
      <point x="117" y="524"/>
      <point x="58" y="447" type="curve"/>
      <point x="122" y="410" type="line"/>
      <point x="150" y="452"/>
      <point x="194" y="479"/>
      <point x="249" y="479" type="curve" smooth="yes"/>
      <point x="341" y="479"/>
      <point x="404" y="407"/>
      <point x="404" y="273" type="curve" smooth="yes"/>
      <point x="404" y="139"/>
      <point x="345" y="67"/>
      <point x="267" y="67" type="curve" smooth="yes"/>
      <point x="261" y="67"/>
      <point x="254" y="67"/>
      <point x="248" y="67" type="curve"/>
      <point x="248" y="0" type="line"/>
      <point x="253" y="0"/>
      <point x="258" y="0"/>
      <point x="263" y="0" type="curve" smooth="yes"/>
      <point x="372" y="0"/>
      <point x="396" y="-43"/>
      <point x="396" y="-86" type="curve" smooth="yes"/>
      <point x="396" y="-148"/>
      <point x="365" y="-211"/>
      <point x="237" y="-211" type="curve" smooth="yes"/>
      <point x="162" y="-211"/>
      <point x="91" y="-168"/>
      <point x="53" y="-122" type="curve"/>
      <point x="-6" y="-166" type="line"/>
      <point x="58" y="-246"/>
      <point x="167" y="-278"/>
    </contour>
  </outline>
</glyph>
<glyph name="uni19A2" format="2">
  <advance width="611"/>
  <unicode hex="19A2"/>
  <outline>
    <contour>
      <point x="306" y="-10" type="curve" smooth="yes"/>
      <point x="445" y="-10"/>
      <point x="563" y="100"/>
      <point x="563" y="269" type="curve" smooth="yes"/>
      <point x="563" y="410"/>
      <point x="481" y="498"/>
      <point x="401" y="541" type="curve"/>
      <point x="374" y="477" type="line"/>
      <point x="435" y="451"/>
      <point x="473" y="383"/>
      <point x="473" y="266" type="curve" smooth="yes"/>
      <point x="473" y="127"/>
      <point x="410" y="58"/>
      <point x="306" y="58" type="curve" smooth="yes"/>
      <point x="190" y="58"/>
      <point x="139" y="139"/>
      <point x="139" y="266" type="curve" smooth="yes"/>
      <point x="139" y="383"/>
      <point x="177" y="451"/>
      <point x="238" y="477" type="curve"/>
      <point x="210" y="541" type="line"/>
      <point x="120" y="493"/>
      <point x="49" y="393"/>
      <point x="49" y="269" type="curve" smooth="yes"/>
      <point x="49" y="100"/>
      <point x="165" y="-10"/>
    </contour>
  </outline>
</glyph>
<glyph name="uni19A3" format="2">
  <advance width="678"/>
  <unicode hex="19A3"/>
  <outline>
    <contour>
      <point x="338" y="-278" type="curve" smooth="yes"/>
      <point x="525" y="-278"/>
      <point x="629" y="-81"/>
      <point x="629" y="162" type="curve" smooth="yes"/>
      <point x="629" y="388"/>
      <point x="482" y="546"/>
      <point x="295" y="546" type="curve" smooth="yes"/>
      <point x="146" y="546"/>
      <point x="62" y="472"/>
      <point x="62" y="404" type="curve" smooth="yes"/>
      <point x="62" y="271"/>
      <point x="294" y="244"/>
      <point x="294" y="134" type="curve" smooth="yes"/>
      <point x="294" y="73"/>
      <point x="248" y="58"/>
      <point x="193" y="58" type="curve" smooth="yes"/>
      <point x="151" y="58"/>
      <point x="110" y="79"/>
      <point x="89" y="105" type="curve"/>
      <point x="39" y="61" type="line"/>
      <point x="83" y="3"/>
      <point x="145" y="-10"/>
      <point x="197" y="-10" type="curve" smooth="yes"/>
      <point x="313" y="-10"/>
      <point x="384" y="59"/>
      <point x="384" y="133" type="curve" smooth="yes"/>
      <point x="384" y="274"/>
      <point x="151" y="311"/>
      <point x="151" y="404" type="curve" smooth="yes"/>
      <point x="151" y="443"/>
      <point x="180" y="479"/>
      <point x="295" y="479" type="curve" smooth="yes"/>
      <point x="422" y="479"/>
      <point x="540" y="395"/>
      <point x="540" y="166" type="curve" smooth="yes"/>
      <point x="540" y="-17"/>
      <point x="516" y="-211"/>
      <point x="345" y="-211" type="curve" smooth="yes"/>
      <point x="325" y="-211"/>
      <point x="294" y="-207"/>
      <point x="271" y="-194" type="curve"/>
      <point x="238" y="-259" type="line"/>
      <point x="271" y="-273"/>
      <point x="311" y="-278"/>
    </contour>
  </outline>
</glyph>
<glyph name="uni19A7" format="2">
  <advance width="541"/>
  <unicode hex="19A7"/>
  <outline>
    <contour>
      <point x="408" y="-24" type="curve"/>
      <point x="483" y="-10" type="line"/>
      <point x="477" y="42"/>
      <point x="464" y="83"/>
      <point x="448" y="117" type="curve"/>
      <point x="477" y="167"/>
      <point x="492" y="228"/>
      <point x="492" y="292" type="curve" smooth="yes"/>
      <point x="492" y="452"/>
      <point x="390" y="546"/>
      <point x="246" y="546" type="curve" smooth="yes"/>
      <point x="168" y="546"/>
      <point x="90" y="511"/>
      <point x="49" y="445" type="curve"/>
      <point x="110" y="410" type="line"/>
      <point x="143" y="460"/>
      <point x="197" y="479"/>
      <point x="237" y="479" type="curve" smooth="yes"/>
      <point x="322" y="479"/>
      <point x="402" y="436"/>
      <point x="402" y="284" type="curve" smooth="yes"/>
      <point x="402" y="249"/>
      <point x="399" y="219"/>
      <point x="393" y="192" type="curve"/>
      <point x="345" y="235"/>
      <point x="287" y="249"/>
      <point x="235" y="249" type="curve" smooth="yes"/>
      <point x="132" y="249"/>
      <point x="59" y="183"/>
      <point x="59" y="115" type="curve" smooth="yes"/>
      <point x="59" y="57"/>
      <point x="120" y="-10"/>
      <point x="242" y="-10" type="curve" smooth="yes"/>
      <point x="303" y="-10"/>
      <point x="355" y="13"/>
      <point x="396" y="51" type="curve"/>
      <point x="402" y="29"/>
      <point x="406" y="4"/>
    </contour>
    <contour>
      <point x="268" y="-293" type="curve" smooth="yes"/>
      <point x="374" y="-293"/>
      <point x="457" y="-247"/>
      <point x="457" y="-178" type="curve" smooth="yes"/>
      <point x="457" y="-109"/>
      <point x="374" y="-63"/>
      <point x="268" y="-63" type="curve" smooth="yes"/>
      <point x="162" y="-63"/>
      <point x="78" y="-109"/>
      <point x="78" y="-178" type="curve" smooth="yes"/>
      <point x="78" y="-247"/>
      <point x="162" y="-293"/>
    </contour>
    <contour>
      <point x="266" y="-233" type="curve" smooth="yes"/>
      <point x="189" y="-233"/>
      <point x="151" y="-210"/>
      <point x="151" y="-178" type="curve" smooth="yes"/>
      <point x="151" y="-145"/>
      <point x="189" y="-122"/>
      <point x="266" y="-122" type="curve" smooth="yes"/>
      <point x="343" y="-122"/>
      <point x="384" y="-145"/>
      <point x="384" y="-178" type="curve" smooth="yes"/>
      <point x="384" y="-210"/>
      <point x="343" y="-233"/>
    </contour>
    <contour>
      <point x="247" y="58" type="curve" smooth="yes"/>
      <point x="187" y="58"/>
      <point x="149" y="83"/>
      <point x="149" y="122" type="curve" smooth="yes"/>
      <point x="149" y="157"/>
      <point x="191" y="181"/>
      <point x="247" y="181" type="curve" smooth="yes"/>
      <point x="276" y="181"/>
      <point x="327" y="168"/>
      <point x="364" y="120" type="curve"/>
      <point x="336" y="78"/>
      <point x="296" y="58"/>
    </contour>
  </outline>
</glyph>
<glyph name="uni19AB" format="2">
  <advance width="598"/>
  <unicode hex="19AB"/>
  <outline>
    <contour>
      <point x="559" y="-274" type="line"/>
      <point x="591" y="-229"/>
      <point x="610" y="-180"/>
      <point x="610" y="-112" type="curve" smooth="yes"/>
      <point x="610" y="-34"/>
      <point x="548" y="33"/>
      <point x="463" y="52" type="curve"/>
      <point x="512" y="102"/>
      <point x="549" y="172"/>
      <point x="549" y="268" type="curve" smooth="yes"/>
      <point x="549" y="451"/>
      <point x="431" y="546"/>
      <point x="292" y="546" type="curve" smooth="yes"/>
      <point x="234" y="546"/>
      <point x="181" y="524"/>
      <point x="140" y="489" type="curve"/>
      <point x="150" y="671"/>
      <point x="189" y="782"/>
      <point x="317" y="782" type="curve" smooth="yes"/>
      <point x="357" y="782"/>
      <point x="417" y="763"/>
      <point x="444" y="713" type="curve"/>
      <point x="509" y="764" type="line"/>
      <point x="456" y="832"/>
      <point x="387" y="850"/>
      <point x="330" y="850" type="curve" smooth="yes"/>
      <point x="164" y="850"/>
      <point x="49" y="689"/>
      <point x="49" y="414" type="curve" smooth="yes"/>
      <point x="49" y="328" type="line" smooth="yes"/>
      <point x="49" y="171"/>
      <point x="89" y="54"/>
      <point x="211" y="-5" type="curve"/>
      <point x="239" y="63" type="line"/>
      <point x="149" y="111"/>
      <point x="136" y="205"/>
      <point x="136" y="313" type="curve" smooth="yes"/>
      <point x="136" y="354" type="line" smooth="yes"/>
      <point x="136" y="420"/>
      <point x="202" y="479"/>
      <point x="292" y="479" type="curve" smooth="yes"/>
      <point x="396" y="479"/>
      <point x="459" y="407"/>
      <point x="459" y="273" type="curve" smooth="yes"/>
      <point x="459" y="156"/>
      <point x="421" y="92"/>
      <point x="360" y="66" type="curve"/>
      <point x="360" y="0" type="line"/>
      <point x="365" y="0"/>
      <point x="371" y="0"/>
      <point x="375" y="0" type="curve" smooth="yes"/>
      <point x="484" y="0"/>
      <point x="528" y="-59"/>
      <point x="528" y="-125" type="curve" smooth="yes"/>
      <point x="528" y="-162"/>
      <point x="520" y="-196"/>
      <point x="500" y="-227" type="curve"/>
    </contour>
    <contour>
      <point x="297" y="-293" type="curve" smooth="yes"/>
      <point x="393" y="-293"/>
      <point x="472" y="-242"/>
      <point x="472" y="-178" type="curve" smooth="yes"/>
      <point x="472" y="-114"/>
      <point x="393" y="-63"/>
      <point x="297" y="-63" type="curve" smooth="yes"/>
      <point x="201" y="-63"/>
      <point x="122" y="-114"/>
      <point x="122" y="-178" type="curve" smooth="yes"/>
      <point x="122" y="-242"/>
      <point x="201" y="-293"/>
    </contour>
    <contour>
      <point x="295" y="-234" type="curve" smooth="yes"/>
      <point x="238" y="-234"/>
      <point x="195" y="-209"/>
      <point x="195" y="-177" type="curve" smooth="yes"/>
      <point x="195" y="-144"/>
      <point x="238" y="-122"/>
      <point x="295" y="-122" type="curve" smooth="yes"/>
      <point x="353" y="-122"/>
      <point x="398" y="-144"/>
      <point x="398" y="-177" type="curve" smooth="yes"/>
      <point x="398" y="-209"/>
      <point x="353" y="-234"/>
    </contour>
  </outline>
</glyph>
<glyph name="uni19B0" format="2">
  <advance width="666"/>
  <unicode hex="19B0"/>
  <outline>
    <contour>
      <point x="176" y="295" type="curve" smooth="yes"/>
      <point x="208" y="295"/>
      <point x="238" y="300"/>
      <point x="260" y="310" type="curve"/>
      <point x="230" y="367" type="line"/>
      <point x="215" y="360"/>
      <point x="201" y="358"/>
      <point x="185" y="358" type="curve" smooth="yes"/>
      <point x="160" y="358"/>
      <point x="129" y="374"/>
      <point x="129" y="420" type="curve" smooth="yes"/>
      <point x="129" y="463"/>
      <point x="158" y="483"/>
      <point x="192" y="483" type="curve" smooth="yes"/>
      <point x="295" y="483"/>
      <point x="338" y="295"/>
      <point x="478" y="295" type="curve" smooth="yes"/>
      <point x="576" y="295"/>
      <point x="617" y="379"/>
      <point x="617" y="422" type="curve" smooth="yes"/>
      <point x="617" y="449"/>
      <point x="607" y="486"/>
      <point x="572" y="514" type="curve"/>
      <point x="519" y="469" type="line"/>
      <point x="535" y="456"/>
      <point x="543" y="429"/>
      <point x="543" y="415" type="curve" smooth="yes"/>
      <point x="543" y="379"/>
      <point x="515" y="358"/>
      <point x="480" y="358" type="curve" smooth="yes"/>
      <point x="388" y="358"/>
      <point x="348" y="546"/>
      <point x="197" y="546" type="curve" smooth="yes"/>
      <point x="99" y="546"/>
      <point x="49" y="469"/>
      <point x="49" y="415" type="curve" smooth="yes"/>
      <point x="49" y="340"/>
      <point x="115" y="295"/>
    </contour>
    <contour>
      <point x="176" y="-10" type="curve" smooth="yes"/>
      <point x="208" y="-10"/>
      <point x="238" y="-5"/>
      <point x="260" y="5" type="curve"/>
      <point x="230" y="62" type="line"/>
      <point x="215" y="55"/>
      <point x="201" y="53"/>
      <point x="185" y="53" type="curve" smooth="yes"/>
      <point x="160" y="53"/>
      <point x="129" y="69"/>
      <point x="129" y="115" type="curve" smooth="yes"/>
      <point x="129" y="158"/>
      <point x="158" y="178"/>
      <point x="192" y="178" type="curve" smooth="yes"/>
      <point x="295" y="178"/>
      <point x="338" y="-10"/>
      <point x="478" y="-10" type="curve" smooth="yes"/>
      <point x="576" y="-10"/>
      <point x="617" y="74"/>
      <point x="617" y="117" type="curve" smooth="yes"/>
      <point x="617" y="144"/>
      <point x="607" y="181"/>
      <point x="572" y="208" type="curve"/>
      <point x="519" y="164" type="line"/>
      <point x="535" y="150"/>
      <point x="543" y="124"/>
      <point x="543" y="110" type="curve" smooth="yes"/>
      <point x="543" y="74"/>
      <point x="515" y="53"/>
      <point x="480" y="53" type="curve" smooth="yes"/>
      <point x="388" y="53"/>
      <point x="348" y="241"/>
      <point x="197" y="241" type="curve" smooth="yes"/>
      <point x="99" y="241"/>
      <point x="49" y="164"/>
      <point x="49" y="109" type="curve" smooth="yes"/>
      <point x="49" y="35"/>
      <point x="115" y="-10"/>
    </contour>
  </outline>
</glyph>
<glyph name="uni19B2" format="2">
  <advance width="604"/>
  <unicode hex="19B2"/>
  <outline>
    <contour>
      <point x="301" y="-10" type="curve" smooth="yes"/>
      <point x="471" y="-10"/>
      <point x="555" y="160"/>
      <point x="555" y="410" type="curve" smooth="yes"/>
      <point x="555" y="672"/>
      <point x="483" y="850"/>
      <point x="301" y="850" type="curve" smooth="yes"/>
      <point x="120" y="850"/>
      <point x="49" y="667"/>
      <point x="49" y="410" type="curve" smooth="yes"/>
      <point x="49" y="164"/>
      <point x="131" y="-10"/>
    </contour>
    <contour>
      <point x="301" y="58" type="curve" smooth="yes"/>
      <point x="193" y="58"/>
      <point x="148" y="165"/>
      <point x="140" y="345" type="curve"/>
      <point x="178" y="399"/>
      <point x="240" y="425"/>
      <point x="295" y="425" type="curve" smooth="yes"/>
      <point x="357" y="425"/>
      <point x="425" y="401"/>
      <point x="463" y="340" type="curve"/>
      <point x="455" y="161"/>
      <point x="411" y="58"/>
    </contour>
    <contour>
      <point x="465" y="435" type="curve"/>
      <point x="418" y="471"/>
      <point x="358" y="492"/>
      <point x="298" y="492" type="curve" smooth="yes"/>
      <point x="241" y="492"/>
      <point x="183" y="472"/>
      <point x="139" y="438" type="curve"/>
      <point x="142" y="660"/>
      <point x="178" y="782"/>
      <point x="301" y="782" type="curve" smooth="yes"/>
      <point x="418" y="782"/>
      <point x="462" y="664"/>
    </contour>
  </outline>
</glyph>
<glyph name="uni19B3" format="2">
  <advance width="543"/>
  <unicode hex="19B3"/>
  <outline>
    <contour>
      <point x="289" y="-278" type="curve" smooth="yes"/>
      <point x="347" y="-278"/>
      <point x="421" y="-260"/>
      <point x="475" y="-192" type="curve"/>
      <point x="425" y="-145" type="line"/>
      <point x="399" y="-177"/>
      <point x="349" y="-211"/>
      <point x="291" y="-211" type="curve" smooth="yes"/>
      <point x="179" y="-211"/>
      <point x="144" y="-135"/>
      <point x="133" y="21" type="curve"/>
      <point x="171" y="-1"/>
      <point x="211" y="-10"/>
      <point x="250" y="-10" type="curve" smooth="yes"/>
      <point x="372" y="-10"/>
      <point x="494" y="80"/>
      <point x="494" y="270" type="curve" smooth="yes"/>
      <point x="494" y="468"/>
      <point x="382" y="546"/>
      <point x="253" y="546" type="curve" smooth="yes"/>
      <point x="184" y="546"/>
      <point x="108" y="516"/>
      <point x="58" y="447" type="curve"/>
      <point x="122" y="410" type="line"/>
      <point x="155" y="460"/>
      <point x="208" y="479"/>
      <point x="249" y="479" type="curve" smooth="yes"/>
      <point x="346" y="479"/>
      <point x="404" y="405"/>
      <point x="404" y="271" type="curve" smooth="yes"/>
      <point x="404" y="142"/>
      <point x="345" y="58"/>
      <point x="254" y="58" type="curve" smooth="yes"/>
      <point x="186" y="58"/>
      <point x="125" y="106"/>
      <point x="104" y="153" type="curve"/>
      <point x="39" y="116" type="line"/>
      <point x="39" y="109" type="line" smooth="yes"/>
      <point x="39" y="-166"/>
      <point x="123" y="-278"/>
    </contour>
  </outline>
</glyph>
<glyph name="uni19B4" format="2">
  <advance width="597"/>
  <unicode hex="19B4"/>
  <outline>
    <contour>
      <point x="613" y="-279" type="curve" smooth="yes"/>
      <point x="633" y="-279"/>
      <point x="648" y="-276"/>
      <point x="675" y="-267" type="curve"/>
      <point x="643" y="-205" type="line"/>
      <point x="624" y="-211"/>
      <point x="613" y="-212"/>
      <point x="606" y="-212" type="curve" smooth="yes"/>
      <point x="530" y="-212"/>
      <point x="507" y="-123"/>
      <point x="507" y="132" type="curve" smooth="yes"/>
      <point x="507" y="536" type="line"/>
      <point x="420" y="536" type="line"/>
      <point x="420" y="235" type="line" smooth="yes"/>
      <point x="420" y="120"/>
      <point x="370" y="58"/>
      <point x="287" y="58" type="curve" smooth="yes"/>
      <point x="191" y="58"/>
      <point x="177" y="127"/>
      <point x="177" y="203" type="curve" smooth="yes"/>
      <point x="177" y="373" type="line" smooth="yes"/>
      <point x="177" y="490"/>
      <point x="116" y="546"/>
      <point x="63" y="546" type="curve" smooth="yes"/>
      <point x="38" y="546"/>
      <point x="23" y="543"/>
      <point x="10" y="539" type="curve"/>
      <point x="17" y="474" type="line"/>
      <point x="28" y="477"/>
      <point x="34" y="479"/>
      <point x="49" y="479" type="curve" smooth="yes"/>
      <point x="76" y="479"/>
      <point x="90" y="459"/>
      <point x="90" y="427" type="curve" smooth="yes"/>
      <point x="90" y="201" type="line" smooth="yes"/>
      <point x="90" y="98"/>
      <point x="173" y="-10"/>
      <point x="283" y="-10" type="curve" smooth="yes"/>
      <point x="345" y="-10"/>
      <point x="389" y="24"/>
      <point x="421" y="63" type="curve"/>
      <point x="430" y="-119"/>
      <point x="494" y="-279"/>
    </contour>
  </outline>
</glyph>
<glyph name="uni19B5" format="2">
  <advance width="703"/>
  <unicode hex="19B5"/>
  <outline>
    <contour>
      <point x="576" y="-10" type="curve" smooth="yes"/>
      <point x="594" y="-10"/>
      <point x="628" y="-3"/>
      <point x="651" y="5" type="curve"/>
      <point x="622" y="64" type="line"/>
      <point x="606" y="60"/>
      <point x="598" y="58"/>
      <point x="579" y="58" type="curve" smooth="yes"/>
      <point x="553" y="58"/>
      <point x="541" y="77"/>
      <point x="541" y="109" type="curve" smooth="yes"/>
      <point x="541" y="167"/>
      <point x="564" y="210"/>
      <point x="564" y="284" type="curve" smooth="yes"/>
      <point x="564" y="395"/>
      <point x="487" y="546"/>
      <point x="306" y="546" type="curve" smooth="yes"/>
      <point x="159" y="546"/>
      <point x="49" y="426"/>
      <point x="49" y="263" type="curve" smooth="yes"/>
      <point x="49" y="134"/>
      <point x="120" y="43"/>
      <point x="210" y="-5" type="curve"/>
      <point x="238" y="61" type="line"/>
      <point x="177" y="86"/>
      <point x="139" y="156"/>
      <point x="139" y="273" type="curve" smooth="yes"/>
      <point x="139" y="396"/>
      <point x="190" y="479"/>
      <point x="306" y="479" type="curve" smooth="yes"/>
      <point x="448" y="479"/>
      <point x="474" y="354"/>
      <point x="474" y="278" type="curve" smooth="yes"/>
      <point x="474" y="175"/>
      <point x="458" y="147"/>
      <point x="458" y="103" type="curve" smooth="yes"/>
      <point x="458" y="38"/>
      <point x="498" y="-10"/>
    </contour>
  </outline>
</glyph>
<glyph name="uni19B6" format="2">
  <advance width="1300"/>
  <unicode hex="19B6"/>
  <outline>
    <contour>
      <point x="1177" y="-10" type="curve" smooth="yes"/>
      <point x="1195" y="-10"/>
      <point x="1229" y="-3"/>
      <point x="1251" y="5" type="curve"/>
      <point x="1222" y="64" type="line"/>
      <point x="1207" y="60"/>
      <point x="1198" y="58"/>
      <point x="1180" y="58" type="curve" smooth="yes"/>
      <point x="1153" y="58"/>
      <point x="1141" y="77"/>
      <point x="1141" y="109" type="curve" smooth="yes"/>
      <point x="1141" y="167"/>
      <point x="1165" y="210"/>
      <point x="1165" y="284" type="curve" smooth="yes"/>
      <point x="1165" y="395"/>
      <point x="1087" y="546"/>
      <point x="906" y="546" type="curve" smooth="yes"/>
      <point x="759" y="546"/>
      <point x="649" y="426"/>
      <point x="649" y="263" type="curve" smooth="yes"/>
      <point x="649" y="134"/>
      <point x="721" y="43"/>
      <point x="811" y="-5" type="curve"/>
      <point x="838" y="61" type="line"/>
      <point x="777" y="86"/>
      <point x="739" y="156"/>
      <point x="739" y="273" type="curve" smooth="yes"/>
      <point x="739" y="396"/>
      <point x="791" y="479"/>
      <point x="906" y="479" type="curve" smooth="yes"/>
      <point x="1049" y="479"/>
      <point x="1075" y="354"/>
      <point x="1075" y="278" type="curve" smooth="yes"/>
      <point x="1075" y="175"/>
      <point x="1059" y="147"/>
      <point x="1059" y="103" type="curve" smooth="yes"/>
      <point x="1059" y="38"/>
      <point x="1098" y="-10"/>
    </contour>
    <contour>
      <point x="576" y="-10" type="curve" smooth="yes"/>
      <point x="594" y="-10"/>
      <point x="628" y="-3"/>
      <point x="651" y="5" type="curve"/>
      <point x="622" y="64" type="line"/>
      <point x="606" y="60"/>
      <point x="598" y="58"/>
      <point x="579" y="58" type="curve" smooth="yes"/>
      <point x="553" y="58"/>
      <point x="541" y="77"/>
      <point x="541" y="109" type="curve" smooth="yes"/>
      <point x="541" y="167"/>
      <point x="564" y="210"/>
      <point x="564" y="284" type="curve" smooth="yes"/>
      <point x="564" y="395"/>
      <point x="487" y="546"/>
      <point x="306" y="546" type="curve" smooth="yes"/>
      <point x="159" y="546"/>
      <point x="49" y="426"/>
      <point x="49" y="263" type="curve" smooth="yes"/>
      <point x="49" y="134"/>
      <point x="120" y="43"/>
      <point x="210" y="-5" type="curve"/>
      <point x="238" y="61" type="line"/>
      <point x="177" y="86"/>
      <point x="139" y="156"/>
      <point x="139" y="273" type="curve" smooth="yes"/>
      <point x="139" y="396"/>
      <point x="190" y="479"/>
      <point x="306" y="479" type="curve" smooth="yes"/>
      <point x="448" y="479"/>
      <point x="474" y="354"/>
      <point x="474" y="278" type="curve" smooth="yes"/>
      <point x="474" y="175"/>
      <point x="458" y="147"/>
      <point x="458" y="103" type="curve" smooth="yes"/>
      <point x="458" y="38"/>
      <point x="498" y="-10"/>
    </contour>
  </outline>
</glyph>
<glyph name="uni19B7" format="2">
  <advance width="528"/>
  <unicode hex="19B7"/>
  <outline>
    <contour>
      <point x="283" y="-10" type="curve" smooth="yes"/>
      <point x="356" y="-10"/>
      <point x="433" y="8"/>
      <point x="489" y="94" type="curve"/>
      <point x="429" y="132" type="line"/>
      <point x="398" y="83"/>
      <point x="355" y="58"/>
      <point x="289" y="58" type="curve" smooth="yes"/>
      <point x="198" y="58"/>
      <point x="139" y="118"/>
      <point x="139" y="227" type="curve" smooth="yes"/>
      <point x="139" y="335"/>
      <point x="201" y="383"/>
      <point x="303" y="384" type="curve"/>
      <point x="303" y="449" type="line"/>
      <point x="271" y="449" type="line" smooth="yes"/>
      <point x="200" y="449"/>
      <point x="138" y="477"/>
      <point x="138" y="548" type="curve" smooth="yes"/>
      <point x="138" y="594"/>
      <point x="165" y="647"/>
      <point x="271" y="647" type="curve" smooth="yes"/>
      <point x="326" y="647"/>
      <point x="378" y="627"/>
      <point x="410" y="597" type="curve"/>
      <point x="462" y="652" type="line"/>
      <point x="420" y="690"/>
      <point x="354" y="715"/>
      <point x="279" y="715" type="curve" smooth="yes"/>
      <point x="116" y="715"/>
      <point x="49" y="617"/>
      <point x="49" y="541" type="curve" smooth="yes"/>
      <point x="49" y="483"/>
      <point x="85" y="429"/>
      <point x="152" y="404" type="curve"/>
      <point x="95" y="368"/>
      <point x="49" y="308"/>
      <point x="49" y="226" type="curve" smooth="yes"/>
      <point x="49" y="85"/>
      <point x="150" y="-10"/>
    </contour>
  </outline>
</glyph>
<glyph name="uni19B8" format="2">
  <advance width="519"/>
  <unicode hex="19B8"/>
  <outline>
    <contour>
      <point x="33" y="-10" type="curve" smooth="yes"/>
      <point x="103" y="-10"/>
      <point x="175" y="21"/>
      <point x="237" y="69" type="curve"/>
      <point x="292" y="21"/>
      <point x="358" y="-10"/>
      <point x="424" y="-10" type="curve" smooth="yes"/>
      <point x="460" y="-10"/>
      <point x="505" y="0"/>
      <point x="539" y="21" type="curve"/>
      <point x="505" y="79" type="line"/>
      <point x="482" y="64"/>
      <point x="444" y="58"/>
      <point x="426" y="58" type="curve" smooth="yes"/>
      <point x="379" y="58"/>
      <point x="331" y="79"/>
      <point x="290" y="116" type="curve"/>
      <point x="363" y="190"/>
      <point x="413" y="285"/>
      <point x="413" y="366" type="curve" smooth="yes"/>
      <point x="413" y="498"/>
      <point x="323" y="546"/>
      <point x="250" y="546" type="curve" smooth="yes"/>
      <point x="169" y="546"/>
      <point x="90" y="478"/>
      <point x="90" y="373" type="curve" smooth="yes"/>
      <point x="90" y="273"/>
      <point x="133" y="188"/>
      <point x="188" y="121" type="curve"/>
      <point x="136" y="81"/>
      <point x="78" y="58"/>
      <point x="27" y="58" type="curve" smooth="yes"/>
      <point x="19" y="58"/>
      <point x="8" y="59"/>
      <point x="-4" y="61" type="curve"/>
      <point x="-20" y="-5" type="line"/>
      <point x="0" y="-8"/>
      <point x="18" y="-10"/>
    </contour>
    <contour>
      <point x="242" y="171" type="curve"/>
      <point x="206" y="225"/>
      <point x="180" y="294"/>
      <point x="180" y="373" type="curve" smooth="yes"/>
      <point x="180" y="446"/>
      <point x="203" y="479"/>
      <point x="250" y="479" type="curve" smooth="yes"/>
      <point x="298" y="479"/>
      <point x="323" y="450"/>
      <point x="323" y="364" type="curve" smooth="yes"/>
      <point x="323" y="292"/>
      <point x="290" y="225"/>
    </contour>
  </outline>
</glyph>
<glyph name="uni19B9" format="2">
  <advance width="604"/>
  <unicode hex="19B9"/>
  <outline>
    <contour>
      <point x="301" y="-10" type="curve" smooth="yes"/>
      <point x="471" y="-10"/>
      <point x="555" y="160"/>
      <point x="555" y="410" type="curve" smooth="yes"/>
      <point x="555" y="672"/>
      <point x="483" y="850"/>
      <point x="301" y="850" type="curve" smooth="yes"/>
      <point x="120" y="850"/>
      <point x="49" y="667"/>
      <point x="49" y="410" type="curve" smooth="yes"/>
      <point x="49" y="164"/>
      <point x="131" y="-10"/>
    </contour>
    <contour>
      <point x="301" y="58" type="curve" smooth="yes"/>
      <point x="193" y="58"/>
      <point x="148" y="165"/>
      <point x="140" y="345" type="curve"/>
      <point x="178" y="399"/>
      <point x="240" y="425"/>
      <point x="295" y="425" type="curve" smooth="yes"/>
      <point x="357" y="425"/>
      <point x="425" y="401"/>
      <point x="463" y="340" type="curve"/>
      <point x="455" y="161"/>
      <point x="411" y="58"/>
    </contour>
    <contour>
      <point x="139" y="438" type="curve"/>
      <point x="141" y="634"/>
      <point x="170" y="752"/>
      <point x="261" y="777" type="curve"/>
      <point x="261" y="489" type="line"/>
      <point x="216" y="483"/>
      <point x="173" y="465"/>
    </contour>
    <contour>
      <point x="465" y="435" type="curve"/>
      <point x="430" y="462"/>
      <point x="387" y="480"/>
      <point x="343" y="488" type="curve"/>
      <point x="343" y="776" type="line"/>
      <point x="429" y="750"/>
      <point x="462" y="635"/>
    </contour>
  </outline>
</glyph>
<glyph name="uni19BA" format="2">
  <advance width="563"/>
  <unicode hex="19BA"/>
  <outline>
    <contour>
      <point x="293" y="-10" type="curve" smooth="yes"/>
      <point x="365" y="-10"/>
      <point x="445" y="19"/>
      <point x="504" y="116" type="curve"/>
      <point x="439" y="153" type="line"/>
      <point x="418" y="106"/>
      <point x="357" y="58"/>
      <point x="289" y="58" type="curve" smooth="yes"/>
      <point x="198" y="58"/>
      <point x="139" y="142"/>
      <point x="139" y="271" type="curve" smooth="yes"/>
      <point x="139" y="405"/>
      <point x="197" y="479"/>
      <point x="294" y="479" type="curve" smooth="yes"/>
      <point x="334" y="479"/>
      <point x="388" y="460"/>
      <point x="421" y="410" type="curve"/>
      <point x="495" y="447" type="line"/>
      <point x="495" y="467" type="line" smooth="yes"/>
      <point x="495" y="665"/>
      <point x="439" y="850"/>
      <point x="288" y="850" type="curve" smooth="yes"/>
      <point x="261" y="850"/>
      <point x="228" y="842"/>
      <point x="190" y="825" type="curve"/>
      <point x="229" y="765" type="line"/>
      <point x="253" y="777"/>
      <point x="280" y="782"/>
      <point x="300" y="782" type="curve" smooth="yes"/>
      <point x="386" y="782"/>
      <point x="403" y="705"/>
      <point x="407" y="516" type="curve"/>
      <point x="369" y="536"/>
      <point x="329" y="546"/>
      <point x="290" y="546" type="curve" smooth="yes"/>
      <point x="161" y="546"/>
      <point x="49" y="468"/>
      <point x="49" y="270" type="curve" smooth="yes"/>
      <point x="49" y="80"/>
      <point x="171" y="-10"/>
    </contour>
  </outline>
</glyph>
<glyph name="uni19BB" format="2">
  <advance width="807"/>
  <unicode hex="19BB"/>
  <outline>
    <contour>
      <point x="573" y="-278" type="curve" smooth="yes"/>
      <point x="679" y="-278"/>
      <point x="739" y="-166"/>
      <point x="739" y="-35" type="curve" smooth="yes"/>
      <point x="739" y="536" type="line"/>
      <point x="652" y="536" type="line"/>
      <point x="652" y="-36" type="line" smooth="yes"/>
      <point x="652" y="-137"/>
      <point x="643" y="-211"/>
      <point x="573" y="-211" type="curve" smooth="yes"/>
      <point x="503" y="-211"/>
      <point x="494" y="-137"/>
      <point x="494" y="-36" type="curve" smooth="yes"/>
      <point x="494" y="270" type="line" smooth="yes"/>
      <point x="494" y="468"/>
      <point x="382" y="546"/>
      <point x="253" y="546" type="curve" smooth="yes"/>
      <point x="184" y="546"/>
      <point x="108" y="516"/>
      <point x="58" y="447" type="curve"/>
      <point x="122" y="410" type="line"/>
      <point x="155" y="460"/>
      <point x="208" y="479"/>
      <point x="249" y="479" type="curve" smooth="yes"/>
      <point x="346" y="479"/>
      <point x="404" y="405"/>
      <point x="404" y="271" type="curve" smooth="yes"/>
      <point x="404" y="142"/>
      <point x="345" y="58"/>
      <point x="254" y="58" type="curve" smooth="yes"/>
      <point x="186" y="58"/>
      <point x="125" y="106"/>
      <point x="104" y="153" type="curve"/>
      <point x="39" y="116" type="line"/>
      <point x="98" y="19"/>
      <point x="178" y="-10"/>
      <point x="250" y="-10" type="curve" smooth="yes"/>
      <point x="306" y="-10"/>
      <point x="363" y="9"/>
      <point x="407" y="49" type="curve"/>
      <point x="407" y="-41" type="line" smooth="yes"/>
      <point x="407" y="-144"/>
      <point x="456" y="-278"/>
    </contour>
  </outline>
</glyph>
<glyph name="uni19BC" format="2">
  <advance width="820"/>
  <unicode hex="19BC"/>
  <outline>
    <contour>
      <point x="586" y="-278" type="curve" smooth="yes"/>
      <point x="692" y="-278"/>
      <point x="752" y="-166"/>
      <point x="752" y="-35" type="curve" smooth="yes"/>
      <point x="752" y="536" type="line"/>
      <point x="665" y="536" type="line"/>
      <point x="665" y="-36" type="line" smooth="yes"/>
      <point x="665" y="-137"/>
      <point x="656" y="-211"/>
      <point x="586" y="-211" type="curve" smooth="yes"/>
      <point x="517" y="-211"/>
      <point x="507" y="-137"/>
      <point x="507" y="-36" type="curve" smooth="yes"/>
      <point x="507" y="536" type="line"/>
      <point x="420" y="536" type="line"/>
      <point x="420" y="227" type="line" smooth="yes"/>
      <point x="420" y="117"/>
      <point x="368" y="58"/>
      <point x="287" y="58" type="curve" smooth="yes"/>
      <point x="191" y="58"/>
      <point x="177" y="127"/>
      <point x="177" y="203" type="curve" smooth="yes"/>
      <point x="177" y="373" type="line" smooth="yes"/>
      <point x="177" y="490"/>
      <point x="116" y="546"/>
      <point x="63" y="546" type="curve" smooth="yes"/>
      <point x="38" y="546"/>
      <point x="23" y="543"/>
      <point x="10" y="539" type="curve"/>
      <point x="17" y="474" type="line"/>
      <point x="28" y="477"/>
      <point x="34" y="479"/>
      <point x="49" y="479" type="curve" smooth="yes"/>
      <point x="76" y="479"/>
      <point x="90" y="459"/>
      <point x="90" y="427" type="curve" smooth="yes"/>
      <point x="90" y="201" type="line" smooth="yes"/>
      <point x="90" y="98"/>
      <point x="173" y="-10"/>
      <point x="283" y="-10" type="curve" smooth="yes"/>
      <point x="345" y="-10"/>
      <point x="388" y="23"/>
      <point x="420" y="62" type="curve"/>
      <point x="420" y="-41" type="line" smooth="yes"/>
      <point x="420" y="-144"/>
      <point x="469" y="-278"/>
    </contour>
  </outline>
</glyph>
<glyph name="uni19BE" format="2">
  <advance width="724"/>
  <unicode hex="19BE"/>
  <outline>
    <contour>
      <point x="33" y="-10" type="curve" smooth="yes"/>
      <point x="103" y="-10"/>
      <point x="175" y="21"/>
      <point x="237" y="69" type="curve"/>
      <point x="292" y="21"/>
      <point x="358" y="-10"/>
      <point x="424" y="-10" type="curve" smooth="yes"/>
      <point x="588" y="-10"/>
      <point x="653" y="198"/>
      <point x="653" y="401" type="curve" smooth="yes"/>
      <point x="653" y="422" type="line" smooth="yes"/>
      <point x="654" y="679"/>
      <point x="669" y="782"/>
      <point x="744" y="782" type="curve" smooth="yes"/>
      <point x="759" y="782"/>
      <point x="770" y="781"/>
      <point x="789" y="775" type="curve"/>
      <point x="821" y="837" type="line"/>
      <point x="794" y="847"/>
      <point x="779" y="850"/>
      <point x="759" y="850" type="curve" smooth="yes"/>
      <point x="631" y="850"/>
      <point x="566" y="663"/>
      <point x="566" y="464" type="curve" smooth="yes"/>
      <point x="566" y="364" type="line" smooth="yes"/>
      <point x="566" y="176"/>
      <point x="532" y="59"/>
      <point x="426" y="59" type="curve" smooth="yes"/>
      <point x="360" y="59"/>
      <point x="323" y="85"/>
      <point x="290" y="116" type="curve"/>
      <point x="363" y="190"/>
      <point x="413" y="285"/>
      <point x="413" y="366" type="curve" smooth="yes"/>
      <point x="413" y="498"/>
      <point x="313" y="546"/>
      <point x="250" y="546" type="curve" smooth="yes"/>
      <point x="179" y="546"/>
      <point x="90" y="478"/>
      <point x="90" y="373" type="curve" smooth="yes"/>
      <point x="90" y="273"/>
      <point x="133" y="188"/>
      <point x="188" y="121" type="curve"/>
      <point x="136" y="81"/>
      <point x="78" y="58"/>
      <point x="27" y="58" type="curve" smooth="yes"/>
      <point x="19" y="58"/>
      <point x="8" y="59"/>
      <point x="-4" y="61" type="curve"/>
      <point x="-20" y="-5" type="line"/>
      <point x="0" y="-8"/>
      <point x="18" y="-10"/>
    </contour>
    <contour>
      <point x="242" y="171" type="curve"/>
      <point x="206" y="225"/>
      <point x="180" y="294"/>
      <point x="180" y="373" type="curve" smooth="yes"/>
      <point x="180" y="446"/>
      <point x="203" y="479"/>
      <point x="250" y="479" type="curve" smooth="yes"/>
      <point x="298" y="479"/>
      <point x="323" y="450"/>
      <point x="323" y="364" type="curve" smooth="yes"/>
      <point x="323" y="292"/>
      <point x="290" y="225"/>
    </contour>
  </outline>
</glyph>
<glyph name="uni19BF" format="2">
  <advance width="868"/>
  <unicode hex="19BF"/>
  <outline>
    <contour>
      <point x="633" y="-278" type="curve" smooth="yes"/>
      <point x="751" y="-278"/>
      <point x="799" y="-144"/>
      <point x="799" y="-41" type="curve" smooth="yes"/>
      <point x="799" y="536" type="line"/>
      <point x="712" y="536" type="line"/>
      <point x="712" y="-36" type="line" smooth="yes"/>
      <point x="712" y="-137"/>
      <point x="703" y="-211"/>
      <point x="633" y="-211" type="curve" smooth="yes"/>
      <point x="563" y="-211"/>
      <point x="555" y="-137"/>
      <point x="555" y="-36" type="curve" smooth="yes"/>
      <point x="555" y="410" type="line" smooth="yes"/>
      <point x="555" y="672"/>
      <point x="483" y="850"/>
      <point x="301" y="850" type="curve" smooth="yes"/>
      <point x="120" y="850"/>
      <point x="49" y="667"/>
      <point x="49" y="410" type="curve" smooth="yes"/>
      <point x="49" y="164"/>
      <point x="131" y="-10"/>
      <point x="301" y="-10" type="curve" smooth="yes"/>
      <point x="371" y="-10"/>
      <point x="427" y="30"/>
      <point x="468" y="91" type="curve"/>
      <point x="468" y="-35" type="line" smooth="yes"/>
      <point x="468" y="-169"/>
      <point x="526" y="-278"/>
    </contour>
    <contour>
      <point x="301" y="58" type="curve" smooth="yes"/>
      <point x="193" y="58"/>
      <point x="148" y="165"/>
      <point x="140" y="345" type="curve"/>
      <point x="178" y="399"/>
      <point x="240" y="425"/>
      <point x="295" y="425" type="curve" smooth="yes"/>
      <point x="357" y="425"/>
      <point x="425" y="401"/>
      <point x="463" y="340" type="curve"/>
      <point x="455" y="161"/>
      <point x="411" y="58"/>
    </contour>
    <contour>
      <point x="139" y="438" type="curve"/>
      <point x="141" y="634"/>
      <point x="170" y="752"/>
      <point x="261" y="777" type="curve"/>
      <point x="261" y="489" type="line"/>
      <point x="216" y="483"/>
      <point x="173" y="465"/>
    </contour>
    <contour>
      <point x="465" y="435" type="curve"/>
      <point x="430" y="462"/>
      <point x="387" y="480"/>
      <point x="343" y="488" type="curve"/>
      <point x="343" y="776" type="line"/>
      <point x="429" y="750"/>
      <point x="462" y="635"/>
    </contour>
  </outline>
</glyph>
<glyph name="uni19C2" format="2">
  <advance width="647"/>
  <unicode hex="19C2"/>
  <outline>
    <contour>
      <point x="345" y="-293" type="curve" smooth="yes"/>
      <point x="487" y="-293"/>
      <point x="598" y="-39"/>
      <point x="598" y="162" type="curve" smooth="yes"/>
      <point x="598" y="390"/>
      <point x="499" y="546"/>
      <point x="314" y="546" type="curve" smooth="yes"/>
      <point x="181" y="546"/>
      <point x="49" y="440"/>
      <point x="49" y="241" type="curve" smooth="yes"/>
      <point x="49" y="59"/>
      <point x="102" y="-10"/>
      <point x="173" y="-10" type="curve" smooth="yes"/>
      <point x="274" y="-10"/>
      <point x="270" y="121"/>
      <point x="305" y="121" type="curve" smooth="yes"/>
      <point x="319" y="121"/>
      <point x="333" y="96"/>
      <point x="333" y="42" type="curve" smooth="yes"/>
      <point x="333" y="29"/>
      <point x="333" y="15"/>
      <point x="332" y="0" type="curve"/>
      <point x="405" y="33" type="line"/>
      <point x="406" y="45"/>
      <point x="406" y="56"/>
      <point x="406" y="67" type="curve" smooth="yes"/>
      <point x="406" y="142"/>
      <point x="374" y="188"/>
      <point x="315" y="188" type="curve" smooth="yes"/>
      <point x="238" y="188"/>
      <point x="223" y="58"/>
      <point x="180" y="58" type="curve" smooth="yes"/>
      <point x="153" y="58"/>
      <point x="139" y="106"/>
      <point x="139" y="252" type="curve" smooth="yes"/>
      <point x="139" y="385"/>
      <point x="198" y="479"/>
      <point x="312" y="479" type="curve" smooth="yes"/>
      <point x="427" y="479"/>
      <point x="508" y="395"/>
      <point x="508" y="166" type="curve" smooth="yes"/>
      <point x="508" y="52"/>
      <point x="498" y="-67"/>
      <point x="452" y="-167" type="curve"/>
      <point x="444" y="-119"/>
      <point x="399" y="-83"/>
      <point x="348" y="-83" type="curve" smooth="yes"/>
      <point x="276" y="-83"/>
      <point x="231" y="-128"/>
      <point x="231" y="-184" type="curve" smooth="yes"/>
      <point x="231" y="-245"/>
      <point x="273" y="-293"/>
    </contour>
    <contour>
      <point x="346" y="-234" type="curve" smooth="yes"/>
      <point x="319" y="-234"/>
      <point x="298" y="-215"/>
      <point x="298" y="-187" type="curve" smooth="yes"/>
      <point x="298" y="-158"/>
      <point x="319" y="-138"/>
      <point x="346" y="-138" type="curve" smooth="yes"/>
      <point x="371" y="-138"/>
      <point x="392" y="-158"/>
      <point x="392" y="-187" type="curve" smooth="yes"/>
      <point x="392" y="-215"/>
      <point x="371" y="-234"/>
    </contour>
  </outline>
</glyph>
<glyph name="uni19C3" format="2">
  <advance width="584"/>
  <unicode hex="19C3"/>
  <outline>
    <contour>
      <point x="282" y="-293" type="curve" smooth="yes"/>
      <point x="388" y="-293"/>
      <point x="536" y="-213"/>
      <point x="536" y="-81" type="curve" smooth="yes"/>
      <point x="536" y="11"/>
      <point x="448" y="77"/>
      <point x="335" y="77" type="curve" smooth="yes"/>
      <point x="278" y="77"/>
      <point x="251" y="63"/>
      <point x="209" y="63" type="curve" smooth="yes"/>
      <point x="165" y="63"/>
      <point x="139" y="152"/>
      <point x="139" y="266" type="curve" smooth="yes"/>
      <point x="139" y="404"/>
      <point x="183" y="479"/>
      <point x="297" y="479" type="curve" smooth="yes"/>
      <point x="352" y="479"/>
      <point x="393" y="454"/>
      <point x="420" y="410" type="curve"/>
      <point x="485" y="460" type="line"/>
      <point x="436" y="516"/>
      <point x="377" y="546"/>
      <point x="297" y="546" type="curve" smooth="yes"/>
      <point x="153" y="546"/>
      <point x="49" y="412"/>
      <point x="49" y="260" type="curve" smooth="yes"/>
      <point x="49" y="87"/>
      <point x="124" y="-5"/>
      <point x="195" y="-5" type="curve" smooth="yes"/>
      <point x="253" y="-5"/>
      <point x="288" y="10"/>
      <point x="327" y="10" type="curve" smooth="yes"/>
      <point x="410" y="10"/>
      <point x="443" y="-38"/>
      <point x="443" y="-91" type="curve" smooth="yes"/>
      <point x="443" y="-157"/>
      <point x="410" y="-203"/>
      <point x="358" y="-225" type="curve"/>
      <point x="360" y="-215"/>
      <point x="361" y="-200"/>
      <point x="361" y="-191" type="curve" smooth="yes"/>
      <point x="361" y="-120"/>
      <point x="309" y="-83"/>
      <point x="252" y="-83" type="curve" smooth="yes"/>
      <point x="186" y="-83"/>
      <point x="139" y="-127"/>
      <point x="139" y="-187" type="curve" smooth="yes"/>
      <point x="139" y="-258"/>
      <point x="197" y="-293"/>
    </contour>
    <contour>
      <point x="253" y="-234" type="curve" smooth="yes"/>
      <point x="227" y="-234"/>
      <point x="206" y="-215"/>
      <point x="206" y="-187" type="curve" smooth="yes"/>
      <point x="206" y="-158"/>
      <point x="227" y="-138"/>
      <point x="253" y="-138" type="curve" smooth="yes"/>
      <point x="278" y="-138"/>
      <point x="299" y="-158"/>
      <point x="299" y="-187" type="curve" smooth="yes"/>
      <point x="299" y="-215"/>
      <point x="278" y="-234"/>
    </contour>
  </outline>
</glyph>
<glyph name="uni19C4" format="2">
  <advance width="611"/>
  <unicode hex="19C4"/>
  <outline>
    <contour>
      <point x="296" y="-293" type="curve" smooth="yes"/>
      <point x="417" y="-293"/>
      <point x="552" y="-202"/>
      <point x="552" y="-10" type="curve" smooth="yes"/>
      <point x="552" y="35"/>
      <point x="542" y="76"/>
      <point x="525" y="112" type="curve"/>
      <point x="549" y="154"/>
      <point x="563" y="206"/>
      <point x="563" y="269" type="curve" smooth="yes"/>
      <point x="563" y="410"/>
      <point x="481" y="498"/>
      <point x="401" y="541" type="curve"/>
      <point x="374" y="473" type="line"/>
      <point x="435" y="447"/>
      <point x="473" y="380"/>
      <point x="473" y="263" type="curve" smooth="yes"/>
      <point x="473" y="236"/>
      <point x="470" y="212"/>
      <point x="465" y="190" type="curve"/>
      <point x="424" y="227"/>
      <point x="370" y="248"/>
      <point x="311" y="248" type="curve" smooth="yes"/>
      <point x="255" y="248"/>
      <point x="195" y="229"/>
      <point x="147" y="185" type="curve"/>
      <point x="142" y="208"/>
      <point x="139" y="234"/>
      <point x="139" y="263" type="curve" smooth="yes"/>
      <point x="139" y="380"/>
      <point x="177" y="447"/>
      <point x="238" y="473" type="curve"/>
      <point x="210" y="541" type="line"/>
      <point x="120" y="493"/>
      <point x="49" y="397"/>
      <point x="49" y="269" type="curve" smooth="yes"/>
      <point x="49" y="85"/>
      <point x="165" y="-10"/>
      <point x="306" y="-10" type="curve" smooth="yes"/>
      <point x="362" y="-10"/>
      <point x="415" y="6"/>
      <point x="458" y="37" type="curve"/>
      <point x="460" y="21"/>
      <point x="462" y="5"/>
      <point x="462" y="-12" type="curve" smooth="yes"/>
      <point x="462" y="-91"/>
      <point x="435" y="-194"/>
      <point x="373" y="-225" type="curve"/>
      <point x="375" y="-215"/>
      <point x="376" y="-200"/>
      <point x="376" y="-191" type="curve" smooth="yes"/>
      <point x="376" y="-119"/>
      <point x="321" y="-83"/>
      <point x="268" y="-83" type="curve" smooth="yes"/>
      <point x="201" y="-83"/>
      <point x="154" y="-127"/>
      <point x="154" y="-187" type="curve" smooth="yes"/>
      <point x="154" y="-258"/>
      <point x="211" y="-293"/>
    </contour>
    <contour>
      <point x="268" y="-234" type="curve" smooth="yes"/>
      <point x="242" y="-234"/>
      <point x="221" y="-215"/>
      <point x="221" y="-187" type="curve" smooth="yes"/>
      <point x="221" y="-158"/>
      <point x="242" y="-138"/>
      <point x="268" y="-138" type="curve" smooth="yes"/>
      <point x="293" y="-138"/>
      <point x="314" y="-158"/>
      <point x="314" y="-187" type="curve" smooth="yes"/>
      <point x="314" y="-215"/>
      <point x="293" y="-234"/>
    </contour>
    <contour>
      <point x="306" y="58" type="curve" smooth="yes"/>
      <point x="249" y="58"/>
      <point x="207" y="78"/>
      <point x="180" y="113" type="curve"/>
      <point x="213" y="163"/>
      <point x="266" y="181"/>
      <point x="306" y="181" type="curve" smooth="yes"/>
      <point x="362" y="181"/>
      <point x="405" y="157"/>
      <point x="431" y="114" type="curve"/>
      <point x="402" y="77"/>
      <point x="360" y="58"/>
    </contour>
  </outline>
</glyph>
<glyph name="uni19C6" format="2">
  <advance width="543"/>
  <unicode hex="19C6"/>
  <outline>
    <contour>
      <point x="243" y="-293" type="curve" smooth="yes"/>
      <point x="348" y="-293"/>
      <point x="485" y="-214"/>
      <point x="485" y="-79" type="curve" smooth="yes"/>
      <point x="485" y="-23"/>
      <point x="448" y="27"/>
      <point x="395" y="46" type="curve"/>
      <point x="456" y="91"/>
      <point x="494" y="171"/>
      <point x="494" y="270" type="curve" smooth="yes"/>
      <point x="494" y="468"/>
      <point x="378" y="546"/>
      <point x="259" y="546" type="curve" smooth="yes"/>
      <point x="197" y="546"/>
      <point x="117" y="524"/>
      <point x="58" y="447" type="curve"/>
      <point x="122" y="410" type="line"/>
      <point x="150" y="452"/>
      <point x="194" y="479"/>
      <point x="249" y="479" type="curve" smooth="yes"/>
      <point x="341" y="479"/>
      <point x="404" y="407"/>
      <point x="404" y="273" type="curve" smooth="yes"/>
      <point x="404" y="139"/>
      <point x="345" y="72"/>
      <point x="267" y="72" type="curve" smooth="yes"/>
      <point x="261" y="72"/>
      <point x="254" y="72"/>
      <point x="248" y="72" type="curve"/>
      <point x="248" y="4" type="line"/>
      <point x="253" y="5"/>
      <point x="258" y="5"/>
      <point x="263" y="5" type="curve" smooth="yes"/>
      <point x="372" y="5"/>
      <point x="396" y="-51"/>
      <point x="396" y="-94" type="curve" smooth="yes"/>
      <point x="396" y="-169"/>
      <point x="362" y="-204"/>
      <point x="318" y="-225" type="curve"/>
      <point x="320" y="-215"/>
      <point x="321" y="-200"/>
      <point x="321" y="-191" type="curve" smooth="yes"/>
      <point x="321" y="-119"/>
      <point x="269" y="-83"/>
      <point x="213" y="-83" type="curve" smooth="yes"/>
      <point x="148" y="-83"/>
      <point x="100" y="-127"/>
      <point x="100" y="-187" type="curve" smooth="yes"/>
      <point x="100" y="-261"/>
      <point x="158" y="-293"/>
    </contour>
    <contour>
      <point x="214" y="-234" type="curve" smooth="yes"/>
      <point x="188" y="-234"/>
      <point x="167" y="-215"/>
      <point x="167" y="-187" type="curve" smooth="yes"/>
      <point x="167" y="-158"/>
      <point x="188" y="-138"/>
      <point x="214" y="-138" type="curve" smooth="yes"/>
      <point x="239" y="-138"/>
      <point x="260" y="-158"/>
      <point x="260" y="-187" type="curve" smooth="yes"/>
      <point x="260" y="-215"/>
      <point x="239" y="-234"/>
    </contour>
  </outline>
</glyph>
<glyph name="uni19C8" format="2">
  <advance width="512"/>
  <unicode hex="19C8"/>
  <outline>
    <contour>
      <point x="280" y="-10" type="curve" smooth="yes"/>
      <point x="394" y="-10"/>
      <point x="463" y="74"/>
      <point x="463" y="153" type="curve" smooth="yes"/>
      <point x="463" y="250"/>
      <point x="371" y="302"/>
      <point x="282" y="302" type="curve" smooth="yes"/>
      <point x="232" y="302"/>
      <point x="182" y="283"/>
      <point x="139" y="250" type="curve"/>
      <point x="139" y="256"/>
      <point x="139" y="263"/>
      <point x="139" y="270" type="curve" smooth="yes"/>
      <point x="139" y="412"/>
      <point x="197" y="479"/>
      <point x="294" y="479" type="curve" smooth="yes"/>
      <point x="334" y="479"/>
      <point x="371" y="462"/>
      <point x="401" y="436" type="curve"/>
      <point x="452" y="483" type="line"/>
      <point x="395" y="534"/>
      <point x="339" y="546"/>
      <point x="290" y="546" type="curve" smooth="yes"/>
      <point x="161" y="546"/>
      <point x="49" y="439"/>
      <point x="49" y="261" type="curve" smooth="yes"/>
      <point x="49" y="83"/>
      <point x="168" y="-10"/>
    </contour>
    <contour>
      <point x="279" y="58" type="curve" smooth="yes"/>
      <point x="219" y="58"/>
      <point x="170" y="100"/>
      <point x="149" y="179" type="curve"/>
      <point x="182" y="217"/>
      <point x="227" y="234"/>
      <point x="271" y="234" type="curve" smooth="yes"/>
      <point x="336" y="234"/>
      <point x="373" y="196"/>
      <point x="373" y="148" type="curve" smooth="yes"/>
      <point x="373" y="83"/>
      <point x="326" y="58"/>
    </contour>
  </outline>
</glyph>
<glyph name="uni19C9" format="2">
  <advance width="522"/>
  <unicode hex="19C9"/>
  <outline>
    <contour>
      <point x="290" y="-10" type="curve" smooth="yes"/>
      <point x="345" y="-10"/>
      <point x="410" y="6"/>
      <point x="473" y="74" type="curve"/>
      <point x="422" y="122" type="line"/>
      <point x="389" y="83"/>
      <point x="344" y="58"/>
      <point x="294" y="58" type="curve" smooth="yes"/>
      <point x="197" y="58"/>
      <point x="139" y="125"/>
      <point x="139" y="267" type="curve" smooth="yes"/>
      <point x="139" y="276" type="line"/>
      <point x="181" y="243"/>
      <point x="232" y="225"/>
      <point x="282" y="225" type="curve" smooth="yes"/>
      <point x="363" y="225"/>
      <point x="463" y="294"/>
      <point x="463" y="391" type="curve" smooth="yes"/>
      <point x="463" y="470"/>
      <point x="400" y="546"/>
      <point x="280" y="546" type="curve" smooth="yes"/>
      <point x="168" y="546"/>
      <point x="49" y="448"/>
      <point x="49" y="270" type="curve" smooth="yes"/>
      <point x="49" y="92"/>
      <point x="161" y="-10"/>
    </contour>
    <contour>
      <point x="271" y="292" type="curve" smooth="yes"/>
      <point x="226" y="292"/>
      <point x="180" y="310"/>
      <point x="147" y="349" type="curve"/>
      <point x="167" y="434"/>
      <point x="217" y="479"/>
      <point x="279" y="479" type="curve" smooth="yes"/>
      <point x="326" y="479"/>
      <point x="373" y="453"/>
      <point x="373" y="388" type="curve" smooth="yes"/>
      <point x="373" y="340"/>
      <point x="336" y="292"/>
    </contour>
  </outline>
</glyph>
<glyph name="uni19D1" format="2">
  <advance width="543"/>
  <unicode hex="19D1"/>
  <outline>
    <contour>
      <point x="250" y="-10" type="curve" smooth="yes"/>
      <point x="372" y="-10"/>
      <point x="494" y="80"/>
      <point x="494" y="270" type="curve" smooth="yes"/>
      <point x="494" y="468"/>
      <point x="382" y="546"/>
      <point x="253" y="546" type="curve" smooth="yes"/>
      <point x="184" y="546"/>
      <point x="108" y="516"/>
      <point x="58" y="447" type="curve"/>
      <point x="122" y="410" type="line"/>
      <point x="155" y="460"/>
      <point x="208" y="479"/>
      <point x="249" y="479" type="curve" smooth="yes"/>
      <point x="346" y="479"/>
      <point x="404" y="405"/>
      <point x="404" y="271" type="curve" smooth="yes"/>
      <point x="404" y="142"/>
      <point x="345" y="58"/>
      <point x="254" y="58" type="curve" smooth="yes"/>
      <point x="186" y="58"/>
      <point x="125" y="106"/>
      <point x="104" y="153" type="curve"/>
      <point x="39" y="116" type="line"/>
      <point x="98" y="19"/>
      <point x="178" y="-10"/>
    </contour>
  </outline>
</glyph>
<glyph name="uni19D2" format="2">
  <advance width="359"/>
  <unicode hex="19D2"/>
  <outline>
    <contour>
      <point x="-4" y="-278" type="curve" smooth="yes"/>
      <point x="198" y="-278"/>
      <point x="291" y="-80"/>
      <point x="291" y="169" type="curve" smooth="yes"/>
      <point x="291" y="373" type="line" smooth="yes"/>
      <point x="291" y="490"/>
      <point x="230" y="546"/>
      <point x="176" y="546" type="curve" smooth="yes"/>
      <point x="152" y="546"/>
      <point x="137" y="543"/>
      <point x="124" y="539" type="curve"/>
      <point x="130" y="474" type="line"/>
      <point x="142" y="477"/>
      <point x="147" y="479"/>
      <point x="163" y="479" type="curve" smooth="yes"/>
      <point x="189" y="479"/>
      <point x="204" y="459"/>
      <point x="204" y="427" type="curve" smooth="yes"/>
      <point x="204" y="169" type="line" smooth="yes"/>
      <point x="204" y="-13"/>
      <point x="186" y="-211"/>
      <point x="3" y="-211" type="curve" smooth="yes"/>
      <point x="-17" y="-211"/>
      <point x="-42" y="-205"/>
      <point x="-65" y="-194" type="curve"/>
      <point x="-98" y="-259" type="line"/>
      <point x="-64" y="-273"/>
      <point x="-34" y="-278"/>
    </contour>
  </outline>
</glyph>
<glyph name="uni19D3" format="2">
  <advance width="538"/>
  <unicode hex="19D3"/>
  <outline>
    <contour>
      <point x="395" y="-220" type="curve" smooth="yes"/>
      <point x="415" y="-220"/>
      <point x="440" y="-216"/>
      <point x="455" y="-211" type="curve"/>
      <point x="442" y="-145" type="line"/>
      <point x="426" y="-150"/>
      <point x="404" y="-152"/>
      <point x="390" y="-152" type="curve" smooth="yes"/>
      <point x="313" y="-152"/>
      <point x="246" y="-115"/>
      <point x="168" y="7" type="curve"/>
      <point x="193" y="-3"/>
      <point x="219" y="-10"/>
      <point x="244" y="-10" type="curve" smooth="yes"/>
      <point x="366" y="-10"/>
      <point x="489" y="80"/>
      <point x="489" y="270" type="curve" smooth="yes"/>
      <point x="489" y="468"/>
      <point x="377" y="546"/>
      <point x="248" y="546" type="curve" smooth="yes"/>
      <point x="179" y="546"/>
      <point x="103" y="516"/>
      <point x="52" y="447" type="curve"/>
      <point x="116" y="410" type="line"/>
      <point x="149" y="460"/>
      <point x="203" y="479"/>
      <point x="243" y="479" type="curve" smooth="yes"/>
      <point x="341" y="479"/>
      <point x="399" y="405"/>
      <point x="399" y="271" type="curve" smooth="yes"/>
      <point x="399" y="142"/>
      <point x="339" y="58"/>
      <point x="249" y="58" type="curve" smooth="yes"/>
      <point x="168" y="58"/>
      <point x="132" y="95"/>
      <point x="104" y="142" type="curve"/>
      <point x="39" y="109" type="line"/>
      <point x="99" y="-50"/>
      <point x="218" y="-220"/>
    </contour>
  </outline>
</glyph>
<glyph name="uni19D4" format="2">
  <advance width="538"/>
  <unicode hex="19D4"/>
  <outline>
    <contour>
      <point x="143" y="-220" type="curve" smooth="yes"/>
      <point x="319" y="-220"/>
      <point x="439" y="-50"/>
      <point x="499" y="107" type="curve"/>
      <point x="434" y="142" type="line"/>
      <point x="405" y="95"/>
      <point x="369" y="58"/>
      <point x="289" y="58" type="curve" smooth="yes"/>
      <point x="198" y="58"/>
      <point x="139" y="142"/>
      <point x="139" y="271" type="curve" smooth="yes"/>
      <point x="139" y="405"/>
      <point x="197" y="479"/>
      <point x="294" y="479" type="curve" smooth="yes"/>
      <point x="334" y="479"/>
      <point x="388" y="460"/>
      <point x="421" y="410" type="curve"/>
      <point x="485" y="447" type="line"/>
      <point x="435" y="516"/>
      <point x="359" y="546"/>
      <point x="290" y="546" type="curve" smooth="yes"/>
      <point x="161" y="546"/>
      <point x="49" y="468"/>
      <point x="49" y="270" type="curve" smooth="yes"/>
      <point x="49" y="80"/>
      <point x="171" y="-10"/>
      <point x="293" y="-10" type="curve" smooth="yes"/>
      <point x="318" y="-10"/>
      <point x="344" y="-3"/>
      <point x="370" y="7" type="curve"/>
      <point x="291" y="-115"/>
      <point x="224" y="-152"/>
      <point x="148" y="-152" type="curve" smooth="yes"/>
      <point x="133" y="-152"/>
      <point x="112" y="-150"/>
      <point x="95" y="-145" type="curve"/>
      <point x="83" y="-211" type="line"/>
      <point x="98" y="-216"/>
      <point x="123" y="-220"/>
    </contour>
  </outline>
</glyph>
<glyph name="uni19D5" format="2">
  <advance width="776"/>
  <unicode hex="19D5"/>
  <outline>
    <contour>
      <point x="485" y="-278" type="curve" smooth="yes"/>
      <point x="650" y="-278"/>
      <point x="728" y="-10"/>
      <point x="728" y="284" type="curve" smooth="yes"/>
      <point x="728" y="417"/>
      <point x="673" y="546"/>
      <point x="528" y="546" type="curve" smooth="yes"/>
      <point x="483" y="546"/>
      <point x="419" y="517"/>
      <point x="388" y="438" type="curve"/>
      <point x="357" y="517"/>
      <point x="292" y="546"/>
      <point x="249" y="546" type="curve" smooth="yes"/>
      <point x="104" y="546"/>
      <point x="49" y="417"/>
      <point x="49" y="284" type="curve" smooth="yes"/>
      <point x="49" y="159"/>
      <point x="104" y="55"/>
      <point x="213" y="-5" type="curve"/>
      <point x="240" y="61" type="line"/>
      <point x="177" y="85"/>
      <point x="139" y="167"/>
      <point x="139" y="284" type="curve" smooth="yes"/>
      <point x="139" y="401"/>
      <point x="169" y="479"/>
      <point x="245" y="479" type="curve" smooth="yes"/>
      <point x="307" y="479"/>
      <point x="340" y="431"/>
      <point x="346" y="338" type="curve"/>
      <point x="431" y="338" type="line"/>
      <point x="437" y="431"/>
      <point x="469" y="479"/>
      <point x="531" y="479" type="curve" smooth="yes"/>
      <point x="607" y="479"/>
      <point x="638" y="401"/>
      <point x="638" y="284" type="curve" smooth="yes"/>
      <point x="638" y="-24"/>
      <point x="595" y="-211"/>
      <point x="498" y="-211" type="curve" smooth="yes"/>
      <point x="477" y="-211"/>
      <point x="451" y="-206"/>
      <point x="427" y="-194" type="curve"/>
      <point x="391" y="-253" type="line"/>
      <point x="428" y="-271"/>
      <point x="458" y="-278"/>
    </contour>
  </outline>
</glyph>
<glyph name="uni19D6" format="2">
  <advance width="628"/>
  <unicode hex="19D6"/>
  <outline>
    <contour>
      <point x="371" y="-10" type="curve" smooth="yes"/>
      <point x="505" y="-10"/>
      <point x="579" y="69"/>
      <point x="579" y="143" type="curve" smooth="yes"/>
      <point x="579" y="284"/>
      <point x="345" y="311"/>
      <point x="345" y="404" type="curve" smooth="yes"/>
      <point x="345" y="443"/>
      <point x="371" y="479"/>
      <point x="428" y="479" type="curve" smooth="yes"/>
      <point x="470" y="479"/>
      <point x="498" y="468"/>
      <point x="531" y="440" type="curve"/>
      <point x="577" y="494" type="line"/>
      <point x="540" y="527"/>
      <point x="489" y="546"/>
      <point x="425" y="546" type="curve" smooth="yes"/>
      <point x="322" y="546"/>
      <point x="255" y="477"/>
      <point x="255" y="409" type="curve" smooth="yes"/>
      <point x="255" y="272"/>
      <point x="489" y="254"/>
      <point x="489" y="144" type="curve" smooth="yes"/>
      <point x="489" y="83"/>
      <point x="439" y="58"/>
      <point x="369" y="58" type="curve" smooth="yes"/>
      <point x="224" y="58"/>
      <point x="139" y="172"/>
      <point x="139" y="386" type="curve" smooth="yes"/>
      <point x="139" y="663"/>
      <point x="197" y="782"/>
      <point x="336" y="782" type="curve" smooth="yes"/>
      <point x="376" y="782"/>
      <point x="436" y="763"/>
      <point x="463" y="713" type="curve"/>
      <point x="528" y="764" type="line"/>
      <point x="475" y="832"/>
      <point x="407" y="850"/>
      <point x="349" y="850" type="curve" smooth="yes"/>
      <point x="183" y="850"/>
      <point x="49" y="683"/>
      <point x="49" y="402" type="curve" smooth="yes"/>
      <point x="49" y="154"/>
      <point x="175" y="-10"/>
    </contour>
  </outline>
</glyph>
<glyph name="uni19D7" format="2">
  <advance width="776"/>
  <unicode hex="19D7"/>
  <outline>
    <contour>
      <point x="734" y="-278" type="curve" smooth="yes"/>
      <point x="753" y="-278"/>
      <point x="803" y="-267"/>
      <point x="825" y="-253" type="curve"/>
      <point x="792" y="-196" type="line"/>
      <point x="777" y="-200"/>
      <point x="749" y="-211"/>
      <point x="726" y="-211" type="curve" smooth="yes"/>
      <point x="707" y="-211"/>
      <point x="675" y="-208"/>
      <point x="675" y="-159" type="curve" smooth="yes"/>
      <point x="675" y="-105"/>
      <point x="728" y="113"/>
      <point x="728" y="284" type="curve" smooth="yes"/>
      <point x="728" y="417"/>
      <point x="673" y="546"/>
      <point x="528" y="546" type="curve" smooth="yes"/>
      <point x="483" y="546"/>
      <point x="419" y="517"/>
      <point x="388" y="438" type="curve"/>
      <point x="357" y="517"/>
      <point x="292" y="546"/>
      <point x="249" y="546" type="curve" smooth="yes"/>
      <point x="104" y="546"/>
      <point x="49" y="417"/>
      <point x="49" y="284" type="curve" smooth="yes"/>
      <point x="49" y="159"/>
      <point x="104" y="55"/>
      <point x="213" y="-5" type="curve"/>
      <point x="240" y="61" type="line"/>
      <point x="177" y="85"/>
      <point x="139" y="167"/>
      <point x="139" y="284" type="curve" smooth="yes"/>
      <point x="139" y="401"/>
      <point x="169" y="479"/>
      <point x="245" y="479" type="curve" smooth="yes"/>
      <point x="307" y="479"/>
      <point x="340" y="431"/>
      <point x="346" y="338" type="curve"/>
      <point x="431" y="338" type="line"/>
      <point x="437" y="431"/>
      <point x="469" y="479"/>
      <point x="531" y="479" type="curve" smooth="yes"/>
      <point x="607" y="479"/>
      <point x="638" y="401"/>
      <point x="638" y="284" type="curve" smooth="yes"/>
      <point x="638" y="26"/>
      <point x="609" y="-69"/>
      <point x="609" y="-150" type="curve" smooth="yes"/>
      <point x="609" y="-207"/>
      <point x="662" y="-278"/>
    </contour>
  </outline>
</glyph>
<glyph name="uni19D8" format="2">
  <advance width="561"/>
  <unicode hex="19D8"/>
  <outline>
    <contour>
      <point x="15" y="0" type="curve"/>
      <point x="108" y="0" type="line"/>
      <point x="177" y="117"/>
      <point x="251" y="289"/>
      <point x="281" y="428" type="curve"/>
      <point x="311" y="289"/>
      <point x="385" y="117"/>
      <point x="454" y="0" type="curve"/>
      <point x="546" y="0" type="line"/>
      <point x="444" y="159"/>
      <point x="361" y="363"/>
      <point x="324" y="536" type="curve"/>
      <point x="239" y="536" type="line"/>
      <point x="202" y="363"/>
      <point x="117" y="160"/>
    </contour>
  </outline>
</glyph>
<glyph name="uni19D9" format="2">
  <advance width="598"/>
  <unicode hex="19D9"/>
  <outline>
    <contour>
      <point x="346" y="-278" type="curve" smooth="yes"/>
      <point x="431" y="-278"/>
      <point x="501" y="-247"/>
      <point x="549" y="-190" type="curve"/>
      <point x="498" y="-146" type="line"/>
      <point x="463" y="-191"/>
      <point x="411" y="-211"/>
      <point x="347" y="-211" type="curve" smooth="yes"/>
      <point x="172" y="-211"/>
      <point x="139" y="-31"/>
      <point x="139" y="151" type="curve" smooth="yes"/>
      <point x="139" y="380"/>
      <point x="216" y="479"/>
      <point x="339" y="479" type="curve" smooth="yes"/>
      <point x="420" y="479"/>
      <point x="459" y="427"/>
      <point x="459" y="343" type="curve" smooth="yes"/>
      <point x="459" y="287"/>
      <point x="432" y="229"/>
      <point x="375" y="229" type="curve" smooth="yes"/>
      <point x="340" y="229"/>
      <point x="312" y="249"/>
      <point x="312" y="292" type="curve" smooth="yes"/>
      <point x="312" y="301"/>
      <point x="313" y="310"/>
      <point x="315" y="317" type="curve"/>
      <point x="241" y="353" type="line"/>
      <point x="232" y="337"/>
      <point x="227" y="318"/>
      <point x="227" y="297" type="curve" smooth="yes"/>
      <point x="227" y="243"/>
      <point x="276" y="166"/>
      <point x="375" y="166" type="curve" smooth="yes"/>
      <point x="480" y="166"/>
      <point x="549" y="253"/>
      <point x="549" y="346" type="curve" smooth="yes"/>
      <point x="549" y="445"/>
      <point x="486" y="546"/>
      <point x="337" y="546" type="curve" smooth="yes"/>
      <point x="153" y="546"/>
      <point x="49" y="355"/>
      <point x="49" y="149" type="curve" smooth="yes"/>
      <point x="49" y="-48"/>
      <point x="130" y="-278"/>
    </contour>
  </outline>
</glyph>
<glyph name="uni19DA" format="2">
  <advance width="617"/>
  <unicode hex="19DA"/>
  <outline>
    <contour>
      <point x="618" y="760" type="curve"/>
      <point x="529" y="774" type="line"/>
      <point x="529" y="695"/>
      <point x="523" y="534"/>
      <point x="491" y="445" type="curve"/>
      <point x="450" y="516"/>
      <point x="372" y="546"/>
      <point x="298" y="546" type="curve" smooth="yes"/>
      <point x="168" y="546"/>
      <point x="49" y="461"/>
      <point x="49" y="270" type="curve" smooth="yes"/>
      <point x="49" y="80"/>
      <point x="171" y="-10"/>
      <point x="293" y="-10" type="curve" smooth="yes"/>
      <point x="365" y="-10"/>
      <point x="445" y="19"/>
      <point x="504" y="116" type="curve"/>
      <point x="439" y="153" type="line"/>
      <point x="418" y="106"/>
      <point x="357" y="58"/>
      <point x="289" y="58" type="curve" smooth="yes"/>
      <point x="198" y="58"/>
      <point x="139" y="142"/>
      <point x="139" y="271" type="curve" smooth="yes"/>
      <point x="139" y="405"/>
      <point x="197" y="479"/>
      <point x="294" y="479" type="curve" smooth="yes"/>
      <point x="353" y="479"/>
      <point x="417" y="448"/>
      <point x="432" y="368" type="curve"/>
      <point x="479" y="372"/>
      <point x="501" y="374"/>
      <point x="515" y="376" type="curve"/>
      <point x="595" y="506"/>
      <point x="616" y="699"/>
    </contour>
  </outline>
</glyph>
<glyph name="uni19DE" format="2">
  <advance width="836"/>
  <unicode hex="19DE"/>
  <outline>
    <contour>
      <point x="259" y="-10" type="curve" smooth="yes"/>
      <point x="308" y="-10"/>
      <point x="343" y="2"/>
      <point x="374" y="29" type="curve"/>
      <point x="331" y="81" type="line"/>
      <point x="311" y="64"/>
      <point x="287" y="58"/>
      <point x="261" y="58" type="curve" smooth="yes"/>
      <point x="183" y="58"/>
      <point x="139" y="144"/>
      <point x="139" y="278" type="curve" smooth="yes"/>
      <point x="139" y="421"/>
      <point x="192" y="479"/>
      <point x="249" y="479" type="curve" smooth="yes"/>
      <point x="459" y="479"/>
      <point x="308" y="-10"/>
      <point x="581" y="-10" type="curve" smooth="yes"/>
      <point x="692" y="-10"/>
      <point x="751" y="97"/>
      <point x="751" y="229" type="curve" smooth="yes"/>
      <point x="751" y="329"/>
      <point x="720" y="445"/>
      <point x="720" y="566" type="curve" smooth="yes"/>
      <point x="720" y="723"/>
      <point x="752" y="782"/>
      <point x="824" y="782" type="curve" smooth="yes"/>
      <point x="845" y="782"/>
      <point x="871" y="777"/>
      <point x="895" y="765" type="curve"/>
      <point x="934" y="825" type="line"/>
      <point x="896" y="842"/>
      <point x="864" y="850"/>
      <point x="837" y="850" type="curve" smooth="yes"/>
      <point x="700" y="850"/>
      <point x="630" y="670"/>
      <point x="630" y="570" type="curve" smooth="yes"/>
      <point x="630" y="438"/>
      <point x="661" y="333"/>
      <point x="661" y="198" type="curve" smooth="yes"/>
      <point x="661" y="91"/>
      <point x="630" y="58"/>
      <point x="581" y="58" type="curve" smooth="yes"/>
      <point x="404" y="58"/>
      <point x="538" y="546"/>
      <point x="248" y="546" type="curve" smooth="yes"/>
      <point x="137" y="546"/>
      <point x="49" y="434"/>
      <point x="49" y="279" type="curve" smooth="yes"/>
      <point x="49" y="111"/>
      <point x="150" y="-10"/>
    </contour>
  </outline>
</glyph>
<glyph name=".notdef" format="2">
  <advance width="600"/>
  <outline>
    <contour>
      <point x="94" y="0" type="line"/>
      <point x="505" y="0" type="line"/>
      <point x="505" y="714" type="line"/>
      <point x="94" y="714" type="line"/>
    </contour>
    <contour>
      <point x="145" y="51" type="line"/>
      <point x="145" y="663" type="line"/>
      <point x="454" y="663" type="line"/>
      <point x="454" y="51" type="line"/>
    </contour>
  </outline>
</glyph>
<glyph name="abovemk1" format="2">
  <advance width="393"/>
  <outline>
    <contour>
      <point x="39" y="605" type="curve"/>
      <point x="124" y="605" type="line"/>
      <point x="152" y="637"/>
      <point x="175" y="673"/>
      <point x="196" y="712" type="curve"/>
      <point x="213" y="681"/>
      <point x="248" y="627"/>
      <point x="269" y="605" type="curve"/>
      <point x="354" y="605" type="line"/>
      <point x="319" y="629"/>
      <point x="256" y="704"/>
      <point x="222" y="762" type="curve"/>
      <point x="176" y="762" type="line"/>
      <point x="140" y="705"/>
      <point x="92" y="647"/>
    </contour>
  </outline>
</glyph>
<glyph name="belowmk1" format="2">
  <advance width="545"/>
  <outline>
    <contour>
      <point x="272" y="-293" type="curve" smooth="yes"/>
      <point x="413" y="-293"/>
      <point x="496" y="-248"/>
      <point x="496" y="-179" type="curve" smooth="yes"/>
      <point x="496" y="-110"/>
      <point x="413" y="-63"/>
      <point x="272" y="-63" type="curve" smooth="yes"/>
      <point x="132" y="-63"/>
      <point x="49" y="-110"/>
      <point x="49" y="-179" type="curve" smooth="yes"/>
      <point x="49" y="-248"/>
      <point x="132" y="-293"/>
    </contour>
    <contour>
      <point x="271" y="-234" type="curve" smooth="yes"/>
      <point x="184" y="-234"/>
      <point x="122" y="-216"/>
      <point x="122" y="-179" type="curve" smooth="yes"/>
      <point x="122" y="-141"/>
      <point x="184" y="-122"/>
      <point x="271" y="-122" type="curve" smooth="yes"/>
      <point x="357" y="-122"/>
      <point x="423" y="-141"/>
      <point x="423" y="-179" type="curve" smooth="yes"/>
      <point x="423" y="-216"/>
      <point x="357" y="-234"/>
    </contour>
  </outline>
</glyph>
<glyph name="belowmk2" format="2">
  <advance width="477"/>
  <outline>
    <contour>
      <point x="238" y="-293" type="curve" smooth="yes"/>
      <point x="344" y="-293"/>
      <point x="428" y="-247"/>
      <point x="428" y="-178" type="curve" smooth="yes"/>
      <point x="428" y="-109"/>
      <point x="344" y="-63"/>
      <point x="238" y="-63" type="curve" smooth="yes"/>
      <point x="132" y="-63"/>
      <point x="49" y="-109"/>
      <point x="49" y="-178" type="curve" smooth="yes"/>
      <point x="49" y="-247"/>
      <point x="132" y="-293"/>
    </contour>
    <contour>
      <point x="236" y="-233" type="curve" smooth="yes"/>
      <point x="160" y="-233"/>
      <point x="122" y="-210"/>
      <point x="122" y="-178" type="curve" smooth="yes"/>
      <point x="122" y="-145"/>
      <point x="160" y="-122"/>
      <point x="236" y="-122" type="curve" smooth="yes"/>
      <point x="313" y="-122"/>
      <point x="354" y="-145"/>
      <point x="354" y="-178" type="curve" smooth="yes"/>
      <point x="354" y="-210"/>
      <point x="313" y="-233"/>
    </contour>
  </outline>
</glyph>
<glyph name="finalcons-mark" format="2">
  <advance width="445"/>
  <outline>
    <contour>
      <point x="156" y="-293" type="curve" smooth="yes"/>
      <point x="321" y="-293"/>
      <point x="420" y="24"/>
      <point x="420" y="260" type="curve"/>
      <point x="324" y="138" type="line"/>
      <point x="322" y="33"/>
      <point x="300" y="-91"/>
      <point x="263" y="-169" type="curve"/>
      <point x="255" y="-120"/>
      <point x="210" y="-83"/>
      <point x="159" y="-83" type="curve" smooth="yes"/>
      <point x="87" y="-83"/>
      <point x="42" y="-127"/>
      <point x="42" y="-187" type="curve" smooth="yes"/>
      <point x="42" y="-246"/>
      <point x="85" y="-293"/>
    </contour>
    <contour>
      <point x="157" y="-234" type="curve" smooth="yes"/>
      <point x="130" y="-234"/>
      <point x="109" y="-215"/>
      <point x="109" y="-187" type="curve" smooth="yes"/>
      <point x="109" y="-158"/>
      <point x="130" y="-138"/>
      <point x="157" y="-138" type="curve" smooth="yes"/>
      <point x="182" y="-138"/>
      <point x="203" y="-158"/>
      <point x="203" y="-187" type="curve" smooth="yes"/>
      <point x="203" y="-215"/>
      <point x="182" y="-234"/>
    </contour>
  </outline>
</glyph>
